<svg width="48" height="49" viewBox="0 0 48 49" fill="none" xmlns="http://www.w3.org/2000/svg">
<g id="arrow_downward">
<mask id="mask0_413_540" style="mask-type:alpha" maskUnits="userSpaceOnUse" x="0" y="0" width="48" height="49">
<rect id="Bounding box" y="0.5" width="48" height="48" fill="#D9D9D9"/>
</mask>
<g mask="url(#mask0_413_540)">
<path id="arrow_downward_2" d="M21.7496 32.85V9.7C21.7496 9.0375 21.9579 8.48853 22.3746 8.0531C22.7913 7.6177 23.3496 7.4 24.0496 7.4C24.6829 7.4 25.2163 7.6177 25.6496 8.0531C26.0829 8.48853 26.2996 9.0375 26.2996 9.7V32.85L36.2496 22.9C36.6829 22.4667 37.2192 22.2403 37.8583 22.221C38.4973 22.2017 39.0378 22.41 39.4796 22.846C39.9263 23.282 40.1496 23.8303 40.1496 24.4909C40.1496 25.1515 39.9163 25.6879 39.4496 26.1L25.6496 39.95C25.444 40.147 25.1908 40.3129 24.8899 40.4478C24.589 40.5826 24.307 40.65 24.0441 40.65C23.7144 40.65 23.4004 40.5826 23.1021 40.4478C22.8038 40.3129 22.5529 40.147 22.3496 39.95L8.54961 26.05C8.08294 25.6 7.84961 25.0625 7.84961 24.4375C7.84961 23.8125 8.08681 23.2833 8.56121 22.85C8.99694 22.4167 9.52894 22.2 10.1572 22.2C10.7855 22.2 11.3163 22.4167 11.7496 22.85L21.7496 32.85Z" fill="#1C1B1F"/>
</g>
</g>
</svg>
