<svg xmlns="http://www.w3.org/2000/svg" viewBox="0 0 48 48"><title>cheetah</title><g id="Layer_3" data-name="Layer 3"><rect fill="none" width="48" height="48"/></g><g id="Layer_1" data-name="Layer 1"><path d="M47,18c0,.58-1.12,1.59-1.28,1.68s-2.6-.78-3.1-.56S39,21.05,38.29,22.26s1.65,7.88,1.88,8.49,1.47,3.94,2.26,4.15,1.29.11,1.27.74-2.64,1.36-3-.08c-.63-2.58-3-5.14-4.67-8.17-.83-1.47-1.32-2.61-1.32-2.61a34,34,0,0,0-3.07,3.48,58.23,58.23,0,0,0-2.46,5.44s-.22,1.26,0,1.61,1.1.24,1,.82-.91.78-1.46.7-1.06,0-1.34-.9.53-5.8.65-6.61a18,18,0,0,1,1.17-3.05,6.81,6.81,0,0,1-3.47-.16,45,45,0,0,1-4.93-1.77,10.59,10.59,0,0,1-.41,2.55C19.93,28.59,19,30.5,19,31a9.66,9.66,0,0,0,1.26,3.87c.41.5,1.31.54,1.2,1s-.45.74-1.11.73-1.61.24-1.82-1-2.09-3.94-2.16-4.42.55-1.45,0-3a8.62,8.62,0,0,1-.53-2.6A27.6,27.6,0,0,1,13.77,28c-1.2,1.26-2,1.1-2.81,3.4a7.93,7.93,0,0,0,.36,4.7c.24.48,1.42.23,1.37.91s-2.09.54-2.09.54a2.26,2.26,0,0,1-.76-.62,16.56,16.56,0,0,0-1.61-5c-.07-.16.08-.78,0-.94a9.18,9.18,0,0,1-5.76,5.57,1.17,1.17,0,0,1-1.41-.46c-.35-.45.68-1,.68-1a8.89,8.89,0,0,0,3.39-2.24,11.82,11.82,0,0,0,2.47-5.56c.27-2.35-.17-7.94,3.32-10.08,2.82-1.72,3-1.43,6.18-1.72,4.19-.39,12.12,2.1,14.8.76,4.05-2.5,9.46-2.44,9.46-2.44s0-.31.43-.31a.54.54,0,0,1,.53.26c2.45.15,3.65,1.27,4,2a.89.89,0,0,1,0,.82A3.23,3.23,0,0,1,47,18Z"/></g></svg>