<svg id="Layer_1" data-name="Layer 1" xmlns="http://www.w3.org/2000/svg" viewBox="0 0 23 23.08"><defs><style>.cls-1{fill:#fff;stroke:#231f20;stroke-miterlimit:10;}.cls-2{fill:#231f20;}</style></defs><title>ico-crown</title><path class="cls-1" d="M20.73,5.33H3.27A11,11,0,1,0,23,12,10.92,10.92,0,0,0,20.73,5.33Z" transform="translate(-0.5 -0.42)"/><path class="cls-2" d="M12,19c4.64,0,6-3,6-3s-1.9,1.69-6.06,1.69S6,16,6,16,7.38,19,12,19Z" transform="translate(-0.5 -0.42)"/><circle class="cls-2" cx="16.03" cy="10.08" r="1.5"/><circle class="cls-2" cx="7.03" cy="10.08" r="1.5"/><rect class="cls-2" x="1" y="4.91" width="21" height="1.5"/><path class="cls-2" d="M2.64,5.33,2.15,2A14.32,14.32,0,0,0,6.67,3.22c1.91,0,4.74-1.8,4.74-1.8s3.74,1.8,5.76,1.8A11.63,11.63,0,0,0,21.59,2l-.24,3.36Z" transform="translate(-0.5 -0.42)"/><circle class="cls-2" cx="2" cy="1.58" r="1"/><circle class="cls-2" cx="10.99" cy="1" r="1"/><circle class="cls-2" cx="21" cy="1.58" r="1"/></svg>