<svg id="Layer_1" data-name="Layer 1" xmlns="http://www.w3.org/2000/svg" viewBox="0 0 23 23"><defs><style>.cls-1{fill:#fff;stroke:#231f20;stroke-miterlimit:10;}.cls-2{fill:#231f20;}</style></defs><title>ico-laughing</title><circle class="cls-1" cx="11.5" cy="11.5" r="11"/><path class="cls-2" d="M14.18,15.46a11,11,0,0,1-4.9,1.22s0,.06,0,.08a4.62,4.62,0,0,0,6.29,1.78,4.63,4.63,0,0,0,2.3-6.12.43.43,0,0,0,0-.07A10.09,10.09,0,0,1,14.18,15.46Z" transform="translate(-0.4 -0.43)"/><path class="cls-2" d="M8.45,13.4l.23-1.47a.69.69,0,0,0-.46-.79l-1.67-.7c-1.66-.7-.2-.51.14-.45l2.63.48a.64.64,0,0,1,.45.79L8.9,13.54C8.77,13.87,8.22,14.87,8.45,13.4Z" transform="translate(-0.4 -0.43)"/><path class="cls-2" d="M15.68,10.61,14.35,10A.69.69,0,0,1,14,9.12s0,0,.4-1.77-.3-.46-.45-.14L12.79,9.62a.65.65,0,0,0,.38.83l2.36.61C15.88,11.14,17,11.27,15.68,10.61Z" transform="translate(-0.4 -0.43)"/><path class="cls-2" d="M5.61,17.46c.29-.77,2.27-1.87,2.27-1.87s.81,2.12.52,2.89a1.49,1.49,0,1,1-2.79-1Z" transform="translate(-0.4 -0.43)"/><path class="cls-2" d="M20.26,10.09c-.78-.24-2.85.7-2.85.7s1.22,1.91,2,2.15a1.49,1.49,0,1,0,.84-2.85Z" transform="translate(-0.4 -0.43)"/></svg>