<svg id="Layer_1" data-name="Layer 1" xmlns="http://www.w3.org/2000/svg" viewBox="0 0 20.95 22.95"><defs><style>.cls-1{fill:#fff;stroke:#231f20;stroke-miterlimit:10;stroke-width:0.95px;}.cls-2{fill:#231f20;}</style></defs><title>ico-alien</title><path class="cls-1" d="M22,10c0,6.08-7,13-10,13S2,16.08,2,10C2,4.74,6.48,1,12,1S22,5.05,22,10Z" transform="translate(-1.52 -0.52)"/><path class="cls-2" d="M12,19.22a3.27,3.27,0,0,0,3-2.32,4.67,4.67,0,0,1-3,.84,4.82,4.82,0,0,1-3.06-.84A3.38,3.38,0,0,0,12,19.22Z" transform="translate(-1.52 -0.52)"/><ellipse class="cls-2" cx="8" cy="11" rx="1.81" ry="3.04" transform="translate(-6.96 8.36) rotate(-45)"/><ellipse class="cls-2" cx="16" cy="11" rx="3.04" ry="1.81" transform="translate(-4.62 14.01) rotate(-45)"/></svg>