<svg xmlns="http://www.w3.org/2000/svg" viewBox="628 175 70 70" stroke-linejoin="round" stroke="currentColor" fill="none">
  <path d="M686.650163005957,176.09165467144385L690.4783435217005,199.38543343021115L688.7169491782422,200.65050982437867L689.9515884063187,202.40314780543213L690.316040382037,205.0796644383579L689.2120971250949,209.55901247499708L689.0228760838852,216.13689804903981L684.7959527045159,222.57277320595767L683.2514243078654,223.59522284574268L681.6275820048597,222.6748458242506L680.488482099873,225.38828731461558L678.9521401158524,225.5247791337165L677.7875280863165,229.1168089702295L678.4529380552974,231.06623254056387L677.3125413286604,232.89660833038783L674.9485146713557,230.5161748398216L673.0878501575767,235.08201569505786L674.1368101445545,237.6599368156975L672.6656381795046,238.84998170939514L672.4849735890939,241.21702408115368L669.016558107735,242.10445853128658L666.8449153911868,239.9741157136516L665.2388342533648,239.71150510573943L664.2410948553058,236.8292599645804L662.4184866193149,237.66549843856967L661.1893036509416,239.5870849362085L655.9546303933041,238.92561341988107L653.9925690427955,240.44861079521763L650.6792561007147,238.44349701046826L646.4215650637519,238.3002431699639L646.0112328921655,236.79513706767057L642.8602497979092,233.4885745508907L637.7539333019859,234.1025722064369L635.0809267793992,209.64616373411582L632.5408572954539,188.79056428928857L649.8142959902261,185.94269075646844L655.1230776168567,187.65641992929977L657.0078456697657,188.85552510345224L658.0879934914478,187.3439934043123L661.2904534783357,189.7148903429195L663.1733798168449,190.3224547419195L668.819814152392,187.16306212226698L672.4040577926901,187.11354124264767L675.6974411623075,183.2974091218981L680.7293212043636,179.29222056409185L686.650163005957,176.09165467144385Z" fill-rule="evenodd"/>
</svg>
