<svg xmlns="http://www.w3.org/2000/svg" viewBox="0 0 48 48"><defs><style>.cls-1{fill:none;}.cls-2{fill:#fff;}</style></defs><title>penguin</title><g id="Layer_3" data-name="Layer 3"><rect class="cls-1" width="48" height="48"/></g><g id="Layer_1" data-name="Layer 1"><path d="M24.51,41.05c-.14-.26,6.17-.52,6.17-.52-.13-.79-3.81-1.19-5-1.58s-.92-1.05-.92-1.05S30.68,35,31.6,24.11s-1.71-12.34-1.71-12.34a9.6,9.6,0,0,0,2.36-1,37.78,37.78,0,0,1,5.25.79c0-.92-4.2-2.23-5-2.62s-1.24-2.24-4.59-2.1c-3.41-.27-6.83,7.61-7.09,9.58s-11,10-11.16,14.7c-.06,1.71-.06,2.42.26,2.23s5.71-7.61,8-8.53c1.68-.69.1.54.46,3.94a31.75,31.75,0,0,1-1.05,12.34c-.55,1.7,1.7.79,2,.53a9.68,9.68,0,0,0,1-2.1s.65,2.62,1.18,3,7.09.27,7.09.27C28.58,41.71,24.64,41.31,24.51,41.05Z"/><path class="cls-2" d="M29.16,11.74c-1.34.41-3.49-.8-4,.68s2.15,3.35,1.88,5.37-3.09,3.89-3.09,5.91.18,4.87,0,6.31c-.4,3.22-2.82,8.86-2.82,8.86l1.82-2.61.53,1.47L24.59,35v2.28l1.08-2.38-.27,1.71,1.34-1.75a14.75,14.75,0,0,0-.53,1.75c2.68-2.55,4.83-8.33,5.23-14S30.5,11.34,29.16,11.74Z"/></g></svg>
