<svg xmlns="http://www.w3.org/2000/svg" viewBox="0 0 48 48"><title>US</title><g id="Layer_3" data-name="Layer 3"><rect fill="none" width="48" height="48"/></g><g id="Layer_4" data-name="Layer 4"><path stroke="currentColor" stroke-width="0.98px" stroke-miterlimit="10" fill="none" d="M43.93,12.12a6.12,6.12,0,0,1,1-.1c.49,0,.85,1.58.85,1.58s.68.36.68.61a22.28,22.28,0,0,1-2,2.47l-.39,1s1.4.12,1.39.43-2.25,1.35-2.25,1.35l-.71,1s.36.76.26,1-.45.09-1,.37.48,1,.65,1.29-.38,1.39-.35,1.51a14.36,14.36,0,0,1,.39,1.44,13.81,13.81,0,0,1-1.21,1.58s0,.66-.22.84a1.41,1.41,0,0,1-.74.13l-.32.47a.58.58,0,0,1-.06.44c-.14.21-1.75,1.12-1.62,2.38a7.46,7.46,0,0,0,1.37,2.88l0,.43a4.82,4.82,0,0,1,.67,1,3.07,3.07,0,0,1,0,1.61.59.59,0,0,1-.69.28,3.47,3.47,0,0,1-.56-.61l-.43-.14-1.21-1.87a4.51,4.51,0,0,0,.13-1,.39.39,0,0,0-.32-.36h-.33s-.39-.9-.88-.88-.79.72-1,.74-1-.7-1.21-.74a5.75,5.75,0,0,0-1.37.45s-1.39-.17-1.52,0,.71,1,.57,1.25-2.19,0-2.19,0a3.42,3.42,0,0,0-.85-.58c-.21,0-1.81.14-2,.18a12.19,12.19,0,0,0-1.49,1.14,10.11,10.11,0,0,0-1.6,1c-.08.19.41,1.87.15,1.91a13.84,13.84,0,0,1-2.3-1.32l-.11-.59-.84-1.07s-.45-1.38-.82-1.43-1.5.85-1.64.84a6,6,0,0,1-1.36-.78c-.1-.15.07-.55-.12-1a11.64,11.64,0,0,0-1.55-1.61s-1.34-.17-1.37-.13-.21.57-.21.57l-2.72-.52-3-1.9v-.3l-2.07-.27-.06-.88L3.64,26.45s-.71-.17-.78-.36.1-.57.1-.57l-.81-1.95.28-.21-.1-.3L2,22.63l-.11-1.4a3.59,3.59,0,0,1-.32-.83,2.21,2.21,0,0,1,.28-.67,3.61,3.61,0,0,1-.3-1,4.8,4.8,0,0,1,.76-1v-1.6l2-3.93a11.92,11.92,0,0,1,.06-1.67,8.53,8.53,0,0,1,1.28,1,5.3,5.3,0,0,1,.12-1.29A78.62,78.62,0,0,0,16,12.9a54.43,54.43,0,0,0,9.52.66c.23,0,3.85.71,3.79.94a8.71,8.71,0,0,1-1.19,1.22,2.93,2.93,0,0,0,1,.3c.25,0,1.43-1.16,1.61-1.09s.12.66.12.66l.87.36s1.25-.73,1.39-.6-1.55,1.49-1.87,1.91-1.36,2.48-.6,3.8c.35.62,1.81-.07,2-.69a13,13,0,0,0,.08-2.5,1.4,1.4,0,0,1,.91-.85c.51-.18,1,.33,1,.33a8.61,8.61,0,0,1,.87,2c-.08.25-.64,1.14-.45,1.32s.58.11.74.1a20.54,20.54,0,0,0,2.58-1.82c.1-.18-.42-.38-.3-.5s1.8-.55,1.88-.67,0-.58,0-.84a2.48,2.48,0,0,1,.74-1.12c.17-.05,2.48-.66,2.58-.73S43.45,12.23,43.93,12.12Z"/></g></svg>