<svg id="Layer_1" data-name="Layer 1" xmlns="http://www.w3.org/2000/svg" viewBox="0 0 415.74 145.43"><title>cheetah</title><path d="M408.59,31c.48-1.8,3.64-5.33-3.23-13.44-5.21-6.15-12-5.59-12.73-6.14s.54-6.21-2-6.76-4.95,1.6-4.95,1.6,4.08-.83-.07-1.37c-1.87-.24-8.3,3.7-9.17,4.16a80.65,80.65,0,0,1-11.14,3.38c-2.39.35-7.4-.76-10.4-.69s-8.89,1.92-10.54,2-14.34-3-20.94-3-11.92,1.9-16.77,1.9S273,6.19,250.45,1.31s-66.34,5.08-73.63,9.46S153.27,31.48,145,35.19c-8.62,3.87-43.13,12.39-71.84,11.15s-60.8-26.11-60.8-26.11-5.36-3.67-9.8,0S.8,26.35.86,27.32c14.52,17.73,50.33,34.9,78.59,34.9s65-7.88,78.12-14.3c0,0-2.2,9.34,5,15.65,5.1,3.74,16.82,6.54,17.87,10.43s-6.41,7.44-3.53,10.29,15,6.3,15,6.3l13,5,12,4.35a11.13,11.13,0,0,1,2.47,1.19,111.59,111.59,0,0,1-.77,11.17S209.88,122.2,205,124s-15.81,1.16-17.79,2.14-2.86,6.6-4.17,7.32-2.91-.69-3.72.67c-1,1.65.38,2.22-4.28,6.87-1.22,1.22,3.08,4.39,4.73,4.39s5.2-.35,6.76-1.91,4-5.93,6.53-5.93,21.51-2.74,24.29-4.51c2.49-1.57,6.29-5.88,6.29-5.88h0l.81.33c12.4,4.89,39.26,13.25,42.54,14.28,4.14,1.3,14.58.81,20.26,0s-1.63-9.27-3.77-10.34a15.63,15.63,0,0,0-10-2.42c-8.57.86-19.91-5.41-23.42-7.5-1.58-1,6.64-2,9.46-7.1s2.41-9.22,3-10.13,51-18.74,57.07-21.95,13.14-12.78,16.11-14.92,37.73-13.79,41-13.79,6,1.35,8.75,1.18,3.21-1.07,5.1-1.18,9.87,4.78,13.08,3c4.06-2.2,1.42-4.81,2.69-5.37s2.69.75,4.52-.48,4-5.93,4.79-8.34S408.11,32.82,408.59,31ZM206.71,81.74a7.62,7.62,0,0,1,.23-4c6.47,2.56,11.1,5.36,11.42,8.39.06.37.11.73.16,1.1C215,86,207.34,83.3,206.71,81.74Zm37.42,6.65c2.2-5,1.65-10.46,2.75-15.41,3.31,1.1,5,4.4,5.51,7.15C254,85.09,247.43,86.19,244.13,88.39Z"/></svg>