<svg id="Layer_1" data-name="Layer 1" xmlns="http://www.w3.org/2000/svg" viewBox="0 0 23 23"><defs><style>.cls-1,.cls-3{fill:#fff;}.cls-1,.cls-3,.cls-4{stroke:#231f20;stroke-miterlimit:10;}.cls-2{fill:#231f20;}.cls-3{stroke-width:0.47px;}.cls-4{fill:none;stroke-width:0.5px;}</style></defs><title>ico-silly</title><circle class="cls-1" cx="11.5" cy="11.5" r="11"/><path class="cls-2" d="M13.46,18.57a6.35,6.35,0,0,0,4.89-5.34,19.64,19.64,0,0,1-5.72,2.13,18.76,18.76,0,0,1-6,.78A6.38,6.38,0,0,0,13.46,18.57Z" transform="translate(-0.5 -0.5)"/><path class="cls-3" d="M10,22A2.19,2.19,0,0,1,7.6,19.82V17c.78,0,1.6-.38,2.38-.38s1.56.38,2.37.38v2.83A2.24,2.24,0,0,1,10,22Z" transform="translate(-0.5 -0.5)"/><line class="cls-4" x1="9.48" y1="16.26" x2="9.48" y2="19.52"/><circle class="cls-2" cx="15.51" cy="7.33" r="1"/><circle class="cls-4" cx="16.03" cy="8.5" r="2.32"/><circle class="cls-2" cx="7.1" cy="11" r="1"/><circle class="cls-4" cx="7.1" cy="9.82" r="2.32"/></svg>