<svg id="Layer_1" data-name="Layer 1" xmlns="http://www.w3.org/2000/svg" viewBox="0 0 23 23"><defs><style>.cls-1{fill:#fff;stroke:#231f20;stroke-miterlimit:10;}.cls-2{fill:#231f20;}</style></defs><title>ico-cool</title><circle class="cls-1" cx="11.5" cy="11.5" r="11"/><path class="cls-2" d="M12,7.87a3.44,3.44,0,0,1-.83-.34A16.19,16.19,0,0,0,2,7.08S2.16,10.53,3,11.94s5.38,2,6.68,0,1.09-2.22,1.52-2.69a1,1,0,0,1,1.53,0c.43.47.22.67,1.52,2.69s5.8,1.4,6.68,0S22,7.08,22,7.08a15.8,15.8,0,0,0-9.13.45A3.59,3.59,0,0,1,12,7.87Z" transform="translate(-0.5 -0.5)"/><path class="cls-2" d="M12,18.5a9,9,0,0,0,4.91-1.78A19.91,19.91,0,0,1,12,17.5a19.8,19.8,0,0,1-4.91-.78A9,9,0,0,0,12,18.5Z" transform="translate(-0.5 -0.5)"/></svg>