<svg id="Layer_1" data-name="Layer 1" xmlns="http://www.w3.org/2000/svg" viewBox="0 0 23 23"><defs><style>.cls-1,.cls-3{fill:#fff;}.cls-1,.cls-3,.cls-4{stroke:#231f20;stroke-miterlimit:10;}.cls-2{fill:#231f20;}.cls-3{stroke-width:0.47px;}.cls-4{fill:none;stroke-width:0.5px;}</style></defs><title>ico-brat</title><circle class="cls-1" cx="11.5" cy="11.5" r="11"/><path class="cls-2" d="M9,9.58a4.19,4.19,0,0,0-1.45-.26A5.12,5.12,0,0,0,6,9.58a1.45,1.45,0,0,1,1.5-1.25A1.47,1.47,0,0,1,9,9.58Z" transform="translate(-0.5 -0.5)"/><path class="cls-2" d="M12,19a6.33,6.33,0,0,0,6-4,19.69,19.69,0,0,1-6.06.69A18.92,18.92,0,0,1,6,15,6.39,6.39,0,0,0,12,19Z" transform="translate(-0.5 -0.5)"/><path class="cls-3" d="M12,22A2.19,2.19,0,0,1,9.6,19.82V17c.78,0,1.6-.38,2.38-.38s1.56.38,2.37.38v2.83A2.24,2.24,0,0,1,12,22Z" transform="translate(-0.5 -0.5)"/><line class="cls-4" x1="11.48" y1="16.26" x2="11.48" y2="19.52"/><circle class="cls-2" cx="16.03" cy="8.5" r="1"/><circle class="cls-4" cx="16.03" cy="8.5" r="2.32"/></svg>