<svg id="Layer_1" data-name="Layer 1" xmlns="http://www.w3.org/2000/svg" viewBox="0 0 23 23"><defs><style>.cls-1{fill:#fff;stroke:#231f20;stroke-miterlimit:10;}.cls-2,.cls-3,.cls-4,.cls-5{fill:#231f20;}.cls-3{font-size:4px;}.cls-3,.cls-4,.cls-5{font-family:Montserrat-SemiBoldItalic, Montserrat;font-weight:600;font-style:italic;}.cls-4{font-size:6px;}.cls-5{font-size:8px;}</style></defs><title>ico-sleep</title><circle class="cls-1" cx="11.5" cy="11.5" r="11"/><circle class="cls-2" cx="11.49" cy="17" r="1.5"/><path class="cls-2" d="M7.53,11.5A2.38,2.38,0,0,1,6,11v0a1.5,1.5,0,0,0,3,0v0A2.38,2.38,0,0,1,7.53,11.5Z" transform="translate(-0.5 -0.5)"/><path class="cls-2" d="M16.51,11.5A2.38,2.38,0,0,1,15,11v0a1.5,1.5,0,1,0,3,0v0A2.38,2.38,0,0,1,16.51,11.5Z" transform="translate(-0.5 -0.5)"/><text class="cls-3" transform="translate(10.17 6.51)">z</text><text class="cls-4" transform="translate(12.49 5.36)">z</text><text class="cls-5" transform="translate(14.89 7.2)">z</text></svg>