<svg id="Layer_1" data-name="Layer 1" xmlns="http://www.w3.org/2000/svg" viewBox="0 0 23 23"><defs><style>.cls-1{fill:#fff;stroke:#231f20;stroke-miterlimit:10;}.cls-2{fill:#231f20;}</style></defs><title>ico-sad</title><circle class="cls-1" cx="11.5" cy="11.5" r="11"/><path class="cls-2" d="M12,17.64a4.3,4.3,0,0,1,2.62.88s0,0,0-.05A2.57,2.57,0,0,0,12,16a2.56,2.56,0,0,0-2.63,2.5v.05A4.33,4.33,0,0,1,12,17.64Z" transform="translate(-0.5 -0.5)"/><path class="cls-2" d="M7.51,12.53A2.4,2.4,0,0,1,6,12v0a1.5,1.5,0,0,0,3,0v0A2.4,2.4,0,0,1,7.51,12.53Z" transform="translate(-0.5 -0.5)"/><path class="cls-2" d="M16.49,12.53A2.4,2.4,0,0,1,15,12v0a1.5,1.5,0,0,0,3,0v0A2.4,2.4,0,0,1,16.49,12.53Z" transform="translate(-0.5 -0.5)"/></svg>