<svg xmlns="http://www.w3.org/2000/svg" viewBox="0 0 48 48"><title>Indiana</title><g id="Layer_3" data-name="Layer 3"><rect fill="none" width="48" height="48"/></g><g id="Layer_1" data-name="Layer 1"><path class="cls-2" fill="none" stroke="currentColor" stroke-miterlimit="10" d="M36.1,1.5H19.67S17.48,3.81,16,3.43s-1.12-1.5-2.63-1.5c0,0-.4,26-.51,26.41s-.55.18-.7.66.37,1,.29,1.54-.57.79-.62,1.08.66,1.07.66,1.07l.15.77s.75,2.19.47,2.49-.77.39-1,.62a2.79,2.79,0,0,0-.44,1l-.84,1A4,4,0,0,1,10,40.34c-.55.43-1.28.1-1.61.66s.26.71.29,1.32-1,2.73-.62,3.4,1.36-.32,1.82-.47.93-.46,1.32-.3.05.49.55.95,1.67-1.07,2.16-1.13,1.35,1.48,2.34,1.35,1.88-1.48,2.57-1.61.92,1,2,.77S22,43,22.67,42.65s2.11,1.93,3.26,1.53,1.31-2.56,1.53-3.14,2.38-2.16,2.38-2.16A4.66,4.66,0,0,0,31,37.82c.29-.51-.31-1.6.25-2s1.14.22,2.2.52a1.4,1.4,0,0,0,1.65-.69c.18-.22,1-.63,1.22-.89s-.77-.55-.75-1,.62-.44.73-.88-.91-.23-.88-.65.51-.38.77-.66S36.1,1.5,36.1,1.5Z"/></g></svg>