<svg id="Layer_1" data-name="Layer 1" xmlns="http://www.w3.org/2000/svg" viewBox="0 0 243.33 258.35"><title>squirrel</title><path d="M240.68,87.66C251.15,75.62,231.35-5,168.35.24S107.67,29.53,106.71,53.7s47.72,61.15,42.82,64.73-38.66-14.72-63-13.27C73.37,106,46.34,84.52,46.34,84.52S38.05,71.59,35,74.45s-1.49,11.61-3.15,14.47-22.29,13.9-27,22-2.46,14.78-2.71,17.93S-1,136.44.35,142.09c2.18,9.41,27,3.41,27,3.41s30.52,12.8,26.59,15.14-25.36,3.06-31,2.18-6.18-.48-8.18,3.27c-1.72,3.23-3.67,10.63.13,13.3a6.29,6.29,0,0,0,2.12,1c5.68,1.37,7,1.57,13-.75a18.28,18.28,0,0,1,13.5.55c.8.38,15.87,4.39,25.5,6.13,9.05,1.64,19.8-10.47,19.4-8-.78,4.76-10.08,12-8.76,23s9.37,14.22,6.68,15.41-14.2-2.88-19.5,1.23-13.07,6.86-6.14,9.14c6.7,2.2,28.35,1.49,28.35,1.49s-22.52,6.19-26,10.64a6.31,6.31,0,0,0-.44.66c-1.29,1.6-4.27,5.43-3.65,6.11s.92-.87,3.18-2.95c.12.44-3.14,4.55-2.48,4.91s3.59-2.77,3.93-2.38c-1.84,1.83-3.83,5.82-3.21,6.2s3.07-3.07,5.71-4.07c.2.17-3.76,7-2.85,6.75s5-5.73,6.8-4.4c-1.8,2.92-3.94,8.33-3.22,8.33s1.43-4.08,6.7-6.8c1.15,0,7.62,1,8.87.72a39.62,39.62,0,0,0,5.24-1.42c1.31.11,1.69.12.24-.08h0c5.79-2,9.18-4.6,14.43-4.61,6.72,0,10.07,3.24,32.76,4.08s58.64-31.64,58.64-31.64,21.67-22.59,24.45-57.77c3.28-41.41-50-47.91-55.34-90.45C161.6,49.5,217.64,114.14,240.68,87.66Z" transform="translate(0 0)"/></svg>