<svg xmlns="http://www.w3.org/2000/svg" viewBox="0 0 48 48"><title>squirrel</title><g id="Layer_3" data-name="Layer 3"><rect fill="none" width="48" height="48"/></g><g id="Layer_5" data-name="Layer 5"><path d="M10.38,21.18c-1.49-1.12.83-8.74,7.94-9.55,6.88-.79,6.93,4.38,6.1,6.71-.94,2.66-4.2,5.79-3.51,5.63s4.11-2.58,7-2.41c1.54.09,4.69-2.41,4.69-2.41s1-1.51,1.32-1.18.17,1.36.36,1.69,2.6,1.63,3.16,2.57a3.4,3.4,0,0,1,.31,2.1,3.66,3.66,0,0,1,.21,1.54c-.25,1.1-3.43.24-3.43.24s-3.69,1.53-3.23,1.8a8.64,8.64,0,0,0,3.18.31c.65-.11.72-.06,1,.38s.43,1.24,0,1.55a.71.71,0,0,1-.25.11,1.89,1.89,0,0,1-1.52-.08,2.34,2.34,0,0,0-1.61,0c-.1.05-1,.17-2.09.37-.8.15-1.52-.58-1.84-.75-.1-.05-.52.21-.43.29a3,3,0,0,1,1,2.7c-.16,1.28-1.1,1.66-.78,1.8s1.65-.34,2.27.14,1.53.8.72,1.07a17,17,0,0,1-3.31.17s2.63.72,3,1.24l0,.08c.15.19.5.63.42.71s-.1-.1-.37-.34c0,.05.37.53.29.57s-.42-.32-.46-.28c.22.22.45.68.38.73s-.36-.36-.67-.48c0,0,.44.82.33.79s-.57-.67-.79-.51c.21.34.46,1,.38,1s-.17-.48-.78-.79c-.14,0-.89.11-1,.08a4.08,4.08,0,0,1-.61-.17c-.15,0-.2,0,0,0h0c-.67-.24-1.11-.73-1.72-.73l-4.48,0c-1.81,0-4.68-3.28-4.68-3.28a8.53,8.53,0,0,1-2-6.28c.26-5,9-8.69,5-10S15.05,24.7,10.38,21.18Z"/></g></svg>