<svg id="Layer_1" data-name="Layer 1" xmlns="http://www.w3.org/2000/svg" viewBox="0 0 659.24 302.26"><title>turtle</title><path d="M655.24,227.42c1.82-3.49.73-6.42-2-14.35-4.7-13.9-45.34-41.6-60.95-44.38s-51.91-6.46-58.08-7,3.59-10,5-14.07S525,141.28,515.39,134,480.8,86.2,480.8,86.2,464.5,59.26,438,38.4,379.09,11.8,367,6.33,322.34,0,309.73,3.18,288.35.67,274.51,0,246,6.89,239.29,8.21s-28.37,2-47,7.85-85.69,58-88.81,60.08-3.71-3.42-17.61,2.43c-11.68.07-53.26-23-66.54-15.27C8.32,69.66-3.1,94.64.77,113.05,1.52,116.66,6,106.6,6,111.36c0,27.35,24.29,28.9,23.9,36.24S10,178.92,9.1,191.23a250.06,250.06,0,0,0,8.57,26.6c.88,5.9,2.24,12.61,3.93,13.06,1.41.38,1.7-2.74,2.11-5.93,2.61,1.49,6.29,3.53,10.29,5.57,1.06,4.25,2.86,10.25,4.62,10.25s1-4.1,1.68-7.18A82.8,82.8,0,0,0,48.57,237c3.72,5.57,11,15.08,14.49,9.89.72-1.09-3.11-4.73-5.18-9.37,5.75-5.44,13.42-43.76,20.4-40S106.13,218.8,142.43,234s77.09-1.49,81.77.63c4.28,1.94,7.55,17.15,12.44,19.26a16.39,16.39,0,0,0-6.78,2.12c-2.79,1.93-10.54,16.93-10.48,25.78l-.25-.12s1.16,18.15,3.2,20.4c1.61,1.77,4-9.25,5-14l.78-.11A90.25,90.25,0,0,0,230.51,298c1.13,3.33,3.93-6.57,5.12-11.13l2.37-.36c1.45,2.65,4.29,7.4,6.63,8.42s1.23-5.93.46-9.51c6.3-.58,25.71-2.7,33.82-7.38,9.76-5.61,2.72-42.24,12.58-44s52.13-.79,104.48-2.52,103.6-19.21,114.75-28.22,38.46,20.86,79.57,22.91c19.33,1,27.61,19.26,39,20.84,2.06,4.33.48,11.55,3.16,10.38,2.31-1,3-7.52,3.19-11.27a21.16,21.16,0,0,0,5-3c3.91,2.52,9.2,11.2,12,11.2,3.07,0-1.75-13.46-3.92-19.17l1.66-1.77c2.58.47,5.8,5.52,8.19,4.78C660.56,237.58,657.29,231.11,655.24,227.42Z"/></svg>