<svg xmlns="http://www.w3.org/2000/svg" viewBox="0 0 48 48"><title>ico-turtle2</title><g id="Layer_3" data-name="Layer 3"><rect fill="none" width="48" height="48"/></g><g id="Layer_4" data-name="Layer 4"><path d="M4.93,33.34c-.13-.25-.57-.59-.38-1.15S6,29.26,7.35,29.36c.88.06,1.39-1.18,1.39-1.18s-1.95-2-2.18-2.34a6.8,6.8,0,0,1-.65-1.09c-.1-.28,1-.44,1.67-.94A22.64,22.64,0,0,0,10,20.47a14,14,0,0,1,3-3.33c1.84-1.45,4.11-1.85,5-2.23a9,9,0,0,1,4-.22c.88.22,1.49-.18,2.46-.22a8.42,8.42,0,0,1,2.45.57,19.91,19.91,0,0,1,3.28.55c1.3.41,6,4,6.19,4.18s.26-.24,1.23.17c.81,0,3.71-1.6,4.64-1.06a3.83,3.83,0,0,1,1.29,3.47c-.06.25-.35-.45-.37-.12-.07,1.9-2.85,1.79-1.94,3.19a6.8,6.8,0,0,1,1.18,2.49c-.25.94-.17,1.62-.3,1.95s-.15.88-.27.91-.12-.19-.15-.41c-.18.1-.19,0-.47.17-.07.3-.2.72-.32.72s-.07-.29-.12-.5c-.2.09-.4.17-.58.23-.25.39-.76,1.05-1,.69-.05-.07.22-.33.37-.65-.41-.38-.94-3.05-1.43-2.79a24.56,24.56,0,0,1-4.47,2.55c-2.53,1.06-5.37-.11-5.7,0S27.35,32,27,32.16a1.13,1.13,0,0,1,.47.15,3.49,3.49,0,0,1,.73,1.8h0A5.6,5.6,0,0,1,28,35.52c-.11.12-.28-.64-.34-1H27.6a5.44,5.44,0,0,1-.17.7c-.08.23-.27-.46-.35-.78l-.17,0a1.56,1.56,0,0,1-.46.59c-.17.08-.09-.41,0-.66a7.59,7.59,0,0,1-2.36-.52c-.68-.39-.19-2.94-.88-3.06s-3.63-.06-7.28-.18-2.72,0-3.72-.14-2,1.71-3.92,1.61c-1.35-.06-.57,2.3-1.36,2.41-.15.3,0,.8-.22.72s-.21-.52-.23-.79a1.35,1.35,0,0,1-.35-.21c-.27.18-.64.79-.84.79s.13-.94.28-1.34c0,0-.24.14-.28.1s-.4.39-.57.34S4.79,33.59,4.93,33.34Z"/></g></svg>