<?xml version="1.0" encoding="utf-8"?>
<!-- Generator: Adobe Illustrator 22.1.0, SVG Export Plug-In . SVG Version: 6.00 Build 0)  -->
<svg version="1.1" xmlns="http://www.w3.org/2000/svg" xmlns:xlink="http://www.w3.org/1999/xlink" x="0px" y="0px"
	 viewBox="0 0 159.8 88.8" style="enable-background:new 0 0 159.8 88.8;" xml:space="preserve">
<style type="text/css">
	.st0{enable-background:new    ;}
	.st1{fill-rule:evenodd;clip-rule:evenodd;fill:#8A8A8A;}
	.st2{fill-rule:evenodd;clip-rule:evenodd;}
	.st3{display:none;}
	.st4{display:inline;}
	.st5{fill:none;stroke:#8A8A8A;stroke-linecap:round;stroke-linejoin:round;stroke-miterlimit:10;}
</style>
<g id="Ellipse_1_1_" class="st0">
	<g id="Ellipse_1">
		<g>
			<circle class="st1" cx="11.3" cy="83.2" r="4.5"/>
		</g>
	</g>
</g>
<g id="Ellipse_2_1_" class="st0">
	<g id="Ellipse_2_3_">
		<g>
			<circle class="st1" cx="13.8" cy="67.7" r="4"/>
		</g>
	</g>
</g>
<g id="Ellipse_3_1_" class="st0">
	<g id="Ellipse_3">
		<g>
			<circle class="st2" cx="23.3" cy="78.2" r="2.5"/>
		</g>
	</g>
	<g id="Ellipse_3_3_">
		<g>
			<circle class="st1" cx="146.8" cy="12.7" r="2.5"/>
		</g>
	</g>
</g>
<g id="Ellipse_4_1_" class="st0">
	<g id="Ellipse_4_3_">
		<g>
			<circle class="st2" cx="43.7" cy="70.2" r="4"/>
		</g>
	</g>
</g>
<g id="Ellipse_5_1_" class="st0">
	<g id="Ellipse_5">
		<g>
			<circle class="st2" cx="32.8" cy="51.7" r="3"/>
		</g>
	</g>
</g>
<g id="Ellipse_6_1_" class="st0">
	<g id="Ellipse_6">
		<g>
			<circle class="st1" cx="69.8" cy="46.7" r="9"/>
		</g>
	</g>
</g>
<g id="Ellipse_7_1_" class="st0">
	<g id="Ellipse_7">
		<g>
			<circle class="st2" cx="69.8" cy="69.7" r="3.5"/>
		</g>
	</g>
</g>
<g id="Ellipse_8_1_" class="st0">
	<g id="Ellipse_8">
		<g>
			<circle class="st1" cx="108.8" cy="50.7" r="14"/>
		</g>
	</g>
</g>
<g id="Ellipse_9_1_" class="st0">
	<g id="Ellipse_9">
		<g>
			<circle class="st2" cx="154.3" cy="5.2" r="4.5"/>
		</g>
	</g>
</g>
<g id="Ellipse_10_1_" class="st0">
	<g id="Ellipse_10">
		<g>
			<circle class="st2" cx="131.3" cy="10.2" r="3.5"/>
		</g>
	</g>
</g>
<g id="Ellipse_11_1_" class="st0">
	<g id="Ellipse_11">
		<g>
			<circle class="st1" cx="94.8" cy="15.7" r="3"/>
		</g>
	</g>
</g>
<g id="Ellipse_12_1_" class="st0">
	<g id="Ellipse_12">
		<g>
			<circle class="st2" cx="138.3" cy="37.2" r="3.5"/>
		</g>
	</g>
</g>
<g id="Ellipse_13_1_" class="st0">
	<g id="Ellipse_13">
		<g>
			<circle class="st2" cx="119.3" cy="64.2" r="4.5"/>
		</g>
	</g>
</g>
<g id="Ellipse_14_1_" class="st0">
	<g id="Ellipse_14">
		<g>
			<circle class="st2" cx="88.3" cy="61.2" r="3.5"/>
		</g>
	</g>
</g>
<g id="Layer_15" class="st3">
	<g class="st4">
		<path class="st5" d="M102.3,42.3c-0.2,0-0.3,0-0.5-0.1c-0.2,0.1-0.2,0.3-0.4,0.4c-0.5,0.2-0.5,0.5-0.1,1c-0.4,0.2-0.9,0.2-1.2,0.6
			c-0.1,0.1,0.1,0.3,0.1,0.4c0.1,0.2,0.2,0.3,0,0.5c-0.2,0.2-0.3,0.1-0.5,0c-0.2-0.1-0.4-0.2-0.6-0.3c-0.3-0.1-0.6-0.2-0.8,0.2
			c-0.3,0.5-0.5,0.5-0.8,0c-0.1-0.3-0.5-0.5-0.1-0.9c-0.2-0.3-0.1-0.8-0.3-1.1c-0.3-0.3-0.6-0.7-1-0.9c-0.4-0.2-0.7-0.5-1-0.8
			c-0.3-0.3-0.3-0.6-0.1-0.9c0.4-0.4,0.3-1,0.6-1.4c-0.2-0.4-0.6-0.4-1-0.5c-0.2,0-0.1,0.3-0.3,0.4c-0.1-0.1-0.4-0.2-0.4-0.5
			c0-0.6-0.1-1.1-0.7-1.5c-0.4-0.2-0.6-0.8-1.1-1c-0.1,0-0.1-0.3-0.1-0.4c-0.1-0.4-0.3-0.8-0.3-1.3c0-0.3-0.1-0.6,0.2-0.8
			c0.1,0,0.1-0.2,0.1-0.3c-0.1-0.3,0.1-0.5,0.4-0.6c0.3-0.1,0.4-0.3,0.4-0.6c0-0.2,0.1-0.3,0.2-0.4c0.3-0.3,0.3-0.6,0-0.9
			c-0.2-0.2-0.2-0.4-0.1-0.7c0.1-0.3,0.3-0.4,0.6-0.3c0.5,0.1,1-0.2,1.3-0.5c0.3-0.4,0.6-0.9,0.7-1.5c0-0.1,0-0.3-0.1-0.4
			c-0.4-0.3-0.5-0.8-0.9-1.1c-0.2-0.2-0.4-0.4-0.4-0.6c0-0.4-0.3-0.4-0.5-0.4c-0.4,0-0.7-0.2-0.7-0.7c0-0.3-0.2-0.5-0.2-0.9
			c0-0.2,0.1-0.4,0.3-0.6c-0.6-0.4-0.4-1.1-0.5-1.7c-0.1-0.5-0.4-0.8-0.8-1c-0.4-0.2-0.8-0.4-1-0.9c0-0.1-0.1-0.3-0.2-0.3
			c-0.5-0.2-0.9-0.7-1.5-0.7c-0.3,0-0.4-0.4-0.7-0.6c-0.1,0,0-0.3,0-0.5c0-0.6-0.1-1.3,0.3-1.9c0.1-0.2,0-0.6-0.4-0.6
			c-0.2,0-0.3-0.2-0.2-0.3c0.2-0.4,0.3-0.8,0.7-1c0.1,0,0.1-0.1,0.1-0.1c0.7-0.2,0.9-0.6,0.8-1.3c0-0.1,0-0.3,0-0.4
			c-0.1-0.8,0.4-1.3,0.9-1.6c0.8-0.5,1.4-1,2-1.7c0.1-0.2,0.3-0.4,0.5-0.4C94,7.5,94.8,7,95.8,6.7c0.4-0.1,0.8-0.4,1.1-0.7
			c-0.3-0.3-0.5,0-0.7,0.1c-0.4-0.4-0.9-0.6-1.5-0.4c-0.5,0.1-1,0.2-1.2-0.5c-0.7,0.5-1.4,0.7-2.2,0.9c0-0.3,0.2-0.5-0.1-0.7
			c-0.4-0.2-0.8-0.4-1.2-0.6c-0.1,0.1-0.1,0.1-0.2,0.2c0,0.2-0.2,0.3-0.3,0.1c-0.3-0.6-0.9-0.5-1.4-0.6c-0.2,0-0.4-0.1-0.5-0.3
			C87,3.7,87,3.7,86.3,4.1C86,4.3,85.6,4.3,85.4,4c-0.1-0.1-0.1-0.1-0.3-0.1c-0.5-0.1-0.9-0.2-1.4-0.2c-0.5,0-0.7-0.4-0.7-0.8
			c0-0.4-0.1-0.7-0.3-1.1c-0.1-0.3-0.1-0.6-0.5-0.6c-0.4-0.1-0.4,0.4-0.6,0.5c0,0.2,0.2,0.2,0.3,0.3c-0.1,0.8-0.6,0.6-1.1,0.6
			c-7.6,0-15.2,0-22.7,0c-11,0-22,0-33,0c-6.1,0-12.3,0-18.4,0c-0.2,0-0.3,0-0.5,0c-0.1,0.3,0,0.6,0.3,0.8C6.9,3.5,7,3.8,6.8,4.2
			C6.6,4.6,6.7,4.8,7.1,5C7.2,5.2,6.9,5.3,7,5.5c0.2,0.1,0.5,0.1,0.6,0.5C7.4,6.3,7.2,6.5,7.1,6.8"/>
		<path class="st5" d="M57.4,16.8c-6.3,0-12.7,0-19.1,0c0,4.8,0,9.5,0,14.3c8.3,0,16.5,0,24.7,0c0,4.8,0,9.6,0,14.4
			c6.8,0,13.5,0,20.2,0"/>
		<path class="st5" d="M60.3,45.5c-0.2,4.7,0,9.3-0.1,14c0,1.2-0.1,2.5-0.1,3.8c-3.3,0-6.5,0-9.7,0c-0.1,0.3-0.1,0.5,0.1,0.7"/>
		<path class="st5" d="M13.7,27.6c0,3.4,0,6.8,0,10.2c0,0.3,0,0.5,0.2,0.7c2.9,2.8,5.9,5.7,8.8,8.5c1.7,1.7,3.5,3.3,5.1,5
			c0.2,0.2,0.3,0.3,0.5,0.5"/>
		<path class="st5" d="M74.7,80.3c0.3-0.2,0.5,0.3,0.8,0c-0.1,0.3-0.2,0.5-0.3,0.8c-0.1,0.2-0.2,0.5,0,0.8c0.3,0.4,0.4,0.8,0.2,1.3
			c0.5,0.3,0.3,1,0.7,1.4c0.1,0.1-0.1,0.3-0.2,0.4c-0.1,0.1-0.3,0.1-0.4,0.2c-0.1-0.1-0.2-0.2-0.3-0.3c-0.3-0.3-0.6-0.4-1.1-0.4
			c-0.4,0-0.8-0.1-1.2-0.4c-0.1-0.1-0.3-0.2-0.4-0.2c-0.2,0-0.4,0-0.4-0.2c-0.1-0.2-0.3-0.3-0.5-0.3c-0.6,0.1-0.6-0.4-0.7-0.7
			c-0.1-0.5-0.2-0.9-0.6-1.3c-0.2-0.2-0.2-0.4-0.2-0.6c0-0.5-0.2-0.9-0.1-1.4c0-0.3,0-0.5-0.3-0.6c-0.7-0.4-0.8-1.1-1.2-1.7
			c-0.1-0.1,0-0.2-0.2-0.3c-0.4-0.1-0.5-0.5-0.6-0.8c-0.1-0.6-0.4-1.2-0.7-1.7c0-0.1-0.1-0.1-0.1-0.2c0-0.5-0.2-0.8-0.5-1.2
			c-0.3-0.3-0.6-0.7-0.9-1c-0.2-0.2-0.5-0.4-0.6-0.7c-0.1-0.2-0.3-0.3-0.6-0.3c-0.3,0-0.7-0.1-1-0.1c-0.3,0-0.6,0-0.8-0.3
			c-0.2,0.3-0.4,0.5-0.7,0.5c-0.6,0.1-0.7,0.6-0.8,1.1c-0.1,0.5-0.3,0.9-0.6,1.2c-0.1,0.1-0.2,0.2-0.2,0.3c-0.1,0.3-0.3,0.3-0.4,0.1
			c-0.8-0.7-1.8-1-2.7-1.8c-0.6-0.5-0.9-1-1.1-1.6c-0.1-0.2-0.1-0.3-0.1-0.5c0-0.4,0-0.7-0.3-1c-0.1-0.1-0.1-0.4-0.2-0.5
			c-0.2-0.4-0.4-0.8-0.8-1c-0.5-0.2-0.8-0.6-1.1-1c-0.4-0.5-0.8-1.1-1.5-1.3c-0.3-0.1-0.5-0.5-0.5-0.8C51,64.1,50.7,64,50.4,64
			c-1.3,0.1-2.6,0-3.9,0c-0.2,0-0.3-0.1-0.5,0.1c0,0.5,0,1,0,1.5c-0.2,0.1-0.4,0.1-0.5,0.1c-1.9,0-3.8,0-5.7,0
			c-1.1,0-2.1-0.2-3.1-0.6C34.2,64,31.7,63,29.1,62c-0.2-0.1-0.5-0.2-0.7-0.3c-0.5-0.2-0.5-0.3-0.3-0.7c0-0.1,0-0.1,0-0.2
			c-1.1,0-2.1,0.2-3.2,0.3c-1,0.1-1.9,0.2-2.9,0.3c-0.2,0-0.6,0.2-0.4-0.3c0,0,0,0,0,0c-0.8-0.2-0.3-0.8-0.5-1.3
			c-0.3-0.7-0.6-1.4-1.3-1.9c-0.2-0.1-0.4-0.3-0.6-0.4c-0.4-0.4-0.4-0.4-1.1-0.2c0-0.5,0-1-0.5-1.2c-0.2-0.1-0.6-0.1-0.7,0.2
			c-0.2-0.1-0.4-0.2-0.6-0.3c-0.2-0.1-0.5-0.1-0.5-0.5c0-0.3-0.9-0.6-1.2-0.6c-0.4,0.1-0.7-0.2-1.2-0.2c-0.1,0-0.2-0.1-0.4,0
			c-0.1,0.1-1-0.3-1-0.4c-0.1-0.2,0.1-0.5,0-0.8c-0.1-0.3-0.2-0.7,0.1-1c0.1-0.1,0-0.2-0.2-0.3c-0.2-0.1-0.5,0-0.6-0.3
			c0.1-0.1,0-0.3,0.1-0.4c0-0.1,0-0.1,0-0.2c-0.7-0.5-1.3-1.2-1.7-1.9c-0.2-0.4-0.4-0.8-0.9-1.1c-0.4-0.3-0.4-1-0.1-1.4
			c0.2-0.3,0.2-0.6,0-0.9c-0.2-0.3-0.4-0.3-0.7-0.2c-0.2-0.2-0.4-0.4-0.6-0.6c-0.2-0.3-0.4-0.5-0.3-0.9c0.1-0.3-0.2-0.5-0.4-0.7
			c0.2-0.6,1.1,1.4,1,0.9c0-0.3-0.3-1.6-0.1-1.7c0.2,0-0.6-1-0.9-1.3c-0.1-0.1-0.1,1.2,0,1.2"/>
		<path class="st5" d="M83.5,57.3c0.1-0.2,0.2-0.5,0.2-0.8c0-1.9,0-3.8,0-5.7c0-0.8-0.1-1.6-0.3-2.4c-0.1-0.6-0.1-1.2-0.1-1.9
			c0-2.8,0-5.6,0-8.4c0-0.3,0.1-0.6-0.4-0.6c-0.1,0-0.1-0.1-0.2-0.2c-0.2-0.3-0.2-0.7-0.6-0.9c-0.2-0.1,0-0.5,0.1-0.7
			c0.1-0.1,0.4-0.2,0.3-0.4c-0.1-0.3-0.4-0.2-0.6-0.2c-0.3,0-0.9-0.6-0.9-0.9c-0.1-0.3-0.1-0.6-0.5-0.7c-0.1,0-0.1-0.1-0.2-0.2
			c-0.1-0.4-0.2-0.9-0.5-1.3c-0.1-0.1-0.1-0.2,0-0.2c0.3-0.4,0.1-0.9,0-1.2c-0.2-0.6,0-1.4-0.8-1.8c0.3-0.5,0-1-0.2-1.4
			c-0.2-0.3-0.4-0.6-0.5-1.1c0-0.4-0.1-0.9-0.7-0.9c-0.3-0.8-1.2-0.7-1.8-1.2c0,0-0.1,0-0.1,0c-0.5,0.2-1.1-0.1-1.6,0.2
			c-0.2,0.1-0.4,0.1-0.6,0c-0.3-0.2-0.6-0.3-0.8-0.5c-0.3-0.2-0.5-0.2-0.8-0.2c-4.9,0-9.7,0-14.6,0"/>
		<path class="st5" d="M77.8,13.4c-6.7,0-13.5,0-20.2,0"/>
		<path class="st5" d="M43.7,31.1c0,11.5,0,23,0,34.5"/>
		<path class="st5" d="M81.1,34.6c-0.2,0.1-0.4,0-0.6,0c-5.8,0-11.6,0-17.4,0"/>
		<path class="st5" d="M30,27.6c0,6.8,0,13.6,0,20.3c0,0.2,0,0.4,0,0.4c-0.2,0.1-0.1,0.5-0.3,0.5c-0.3,0.1-0.3-0.3-0.4-0.3
			c-0.2-0.1-0.5-0.2-0.8-0.1c-0.3,0.1-0.3,0.4-0.2,0.6c0.2,0.7,0.1,1.5,0.3,2.2c0.2,0.5-0.2,1,0,1.5c0,0.1,0,0.3,0.2,0.4
			c0.2,0.2,0.4,0.5,0.5,0.8c0.1,0.3,0.2,0.5,0.5,0.7c0.3,0.2,0.3,0.5,0,0.7c-0.4,0.2-0.4,0.7-0.7,0.9c0,0,0,0.1,0,0.1
			c0,0.9,0,0.9-0.5,1.9c0,0.1-0.2,0.2,0,0.3c0.1,0.1,0.1,0.2,0.1,0.3c-0.1,0.4-0.2,0.6,0.3,0.7c0.2,0,0.2,0.3,0.2,0.5
			c0,0.2-0.2,0.4-0.4,0.4c-0.1,0-0.1,0-0.2,0.1"/>
		<path class="st5" d="M100.9,52.7c0.1,0.5,0.1,1.1,0,1.6c-0.1,0.4-0.1,0.7-0.1,1.1c0,0.9-0.1,1.7-0.2,2.6c-0.1,1.2-0.2,2.3-0.4,3.5
			c-0.1,0.9-0.3,1.9-0.2,2.8c0.1,1.6,0.2,3.2,0.2,4.8c0.2,0.1,0.5-0.1,0.6,0.2c0.3-0.4,0.2-0.8,0.4-1.2c0.2,0,0.3,0.2,0.3,0.3
			c-0.2,0.6,0.3,0.8,0.5,1.2c0.2,0,0.8-0.2,0.9-0.4"/>
		<path class="st5" d="M62.9,45.4c-0.9,0.1-1.8,0.1-2.7,0.1c-1.1,0-2.1,0-3.2-0.1c-6.7,0-13.3,0-20,0c-2.3,0-4.7,0-7,0"/>
		<path class="st5" d="M60.3,47.1c0.2,0.1,0.3,0,0.5,0c2.4,0,4.8,0,7.1,0c0.2,0,0.3,0,0.6,0c0,0.5,0,0.9,0,1.3c0,1.7,0,3.4,0,5.1
			c0,0.3,0,0.5,0.4,0.7c0.1,0.1,0.4,0.1,0.4,0.4c0,0.1,0.1,0.1,0.1,0.1c0.3,0,0.5-0.1,0.8,0.1c0.1-0.1,0.2-0.1,0.2-0.3
			c0.4,0.8,1.1,1.2,2.1,1c0.1,0.1,0.2,0.3,0.3,0.6c0.2-0.6,0.6-0.3,0.9-0.6c0,0.5,0.5,0.6,0.5,1.1c0,0.1,0.3,0.1,0.4,0
			c0.1-0.1,0.2-0.2,0.4-0.3c0.2,0.4,0.6,0.5,1.2,0.3c0.2,0.1,0,0.4,0.2,0.5"/>
		<path class="st5" d="M115.4,39.3c0.1,0.3,0.2,0.5,0.5,0.6c0.4,0.2,0.5,0.8,0.1,1.4c0.7,0.7,0.7,1.9,1.8,2.2
			c-0.6,0.4-1,0.9-1.6,1.2c-0.4,0.1-0.4,0.6-0.7,0.8c-0.5,0.3-0.9,0.7-1.4,0.9c-0.5,0.2-1.1,0.4-1.6,0.4c-2.4-0.2-4.9,0-7.3-0.1
			c-1.2-0.1-2.4-0.1-3.7-0.1c-0.1,0-0.2,0-0.2,0c-0.2,0.2,0,0.4-0.2,0.6c-0.9,0-1.9,0-2.9,0c-0.3,0-0.3-0.5-0.6-0.4
			c-0.1,0.1-0.1,0.2-0.1,0.3"/>
		<path class="st5" d="M123.9,26.7c0.1,0.2,0,0.5,0.1,0.8c0.2,0.1,0.3,0,0.5,0c3.7,0,7.5,0,11.2,0c0.3,0,0.5,0,0.6,0.3c0,0,0,0,0,0
			c0.5,0.2,0.6,0.6,0.6,1.1c0,0.2,0.2,0.4,0.3,0.5c0.8,0.3,1.4,1,2.1,1.3c0.5,0.2,0.8,0.5,0.6,1.1"/>
		<path class="st5" d="M98,47.1c-0.2,0.1-0.5,0-0.8,0.1c0.1,0.3-0.2,0.6-0.3,0.9c0,0.1-0.2,0.1-0.1,0.3c0.1,0.3-0.2,0.6-0.5,0.6
			c-0.5,0-1,0-1.5,0c0.2-0.4,0.5-0.6,0.7-0.8c0.2-0.2,0.3-0.4,0.1-0.6c-0.1-0.3-0.3-0.4-0.6-0.4c-3.9,0-7.8,0-11.7,0"/>
		<path class="st5" d="M113.8,46.7c0.2,0.1,0.3,0,0.5,0c1.2,0,2.4-0.1,3.6,0c5.4,0.4,10.8,0.1,16.2,0.2"/>
		<path class="st5" d="M78.1,25.6c0.1-0.4-0.3-0.5-0.4-0.7c0.3-0.4,0.4-0.8,0.5-1.3c0.1-0.4-0.2-0.8-0.3-1.3c4.9,0,9.7,0,14.5,0"/>
		<path class="st5" d="M108,52.7c0,0.8,0.2,1.6,0.4,2.4c0.1,0.8,0.2,1.5,0.4,2.3c0.2,1.2,0.2,2.5,0.7,3.6c0.2,0.5,0.3,0.9,0.4,1.5
			c-0.5,0.6-0.7,1.3-0.4,2.2c0.1,0.2,0.1,0.3,0.1,0.5c-0.1,0.5-0.2,1,0.1,1.5c0,0,0,0.1-0.1,0.2c-0.2,0-0.6,0-0.9,0
			c-1.8,0-3.6,0-5.4,0c-0.2,0-0.5-0.1-0.7,0.2c-0.1,0.3,0.1,0.6,0.3,0.7c0.3,0.2,0.3,0.3,0.2,0.6c-0.1,0.2,0.2,0.5,0,0.7"/>
		<path class="st5" d="M109.4,66.9c0.3,0.2,0.5,0.6,0.4,1c1,0.1,2,0.2,3,0.2c1.1,0.1,2.1,0.1,3.2,0.3c0.1,0,0.3,0,0.4,0
			c0.4,0,0.9-0.1,0.9,0.6c0,0.1,0.1,0.2,0.3,0.2c0-0.3,0.2-0.6,0.1-1c-0.1-0.5,0.2-0.6,0.6-0.5c0.2,0,0.3,0.1,0.4,0.2
			c0.2,0.1,0.4,0,0.5,0.1c-0.3,0.4,0,0.8,0.1,1.2c0.2,1,0.3,2.1,0.7,3.1c0.2,0.6,0.5,1.1,0.7,1.6c0.1,0.2,0.2,0.5,0.2,0.7
			c0,0.9,0.2,1.7,0.5,2.5c0.5,1,0.8,2.1,1,3.2c0,0-0.1,0.1,0,0.1c0.5,0.3,0.3,0.9,0.6,1.3c0.1,0.1-0.1,0.2-0.1,0.4
			c0.1,1-0.1,1.9-0.1,2.9c0,0.2-0.1,0.3-0.2,0.4c-0.1,0.1-0.1,0.3,0.1,0.4c-0.5,0.2-0.7,0.5-0.5,1c0.1,0.4,0.3,0.6-0.2,0.8"/>
		<path class="st5" d="M91.9,33.2c-0.4-0.7-1-0.8-1.8-0.8c-3.3,0-6.6,0.2-9.8,0.1"/>
		<path class="st5" d="M22.1,13.3c-1.4,0-2.8,0-4.2,0c-1,0-2,0.1-3,0.3c-0.9,0.2-1.8,0.8-2.8,0.6c-0.2,0-0.4,0.1-0.6,0.2
			c-0.6,0.3-1.2,0-1.8-0.1c-0.3-0.1-0.6,0.3-0.9-0.1c-0.4,0.4-0.9,0.7-1.5,0.6c-1-0.1-1.1-0.2-1.3-1.2c-0.1-0.7-0.7-1.2-1.3-0.9
			c-0.2-0.1-0.3-0.3-0.5-0.4c-0.3,0-0.5,0.2-0.8,0.2c-0.5,0.1-0.4,0.6-0.5,1c0,0.1,0,0.2,0,0.3c0.2,1,0.1,1.9-0.1,2.9
			c-0.2,1.1-0.3,2.1-0.3,3.2c0,0.5-0.3,0.9,0,1.4c0,0.1-0.1,0.1-0.1,0.2c-0.3,0.4-0.2,1-0.6,1.4c-0.1,0.1-0.1,0.3-0.1,0.4
			c0.1,0.4-0.1,0.8-0.3,1c-0.2,0.3-0.1,0.5,0,0.6c0.3,0.2,0.2,0.5,0.2,0.8c0,0.4,0,0.8,0.1,1.2c0.2,0.5,0.3,0.6,0.8,0.6
			c3.5,0,7.1,0,10.6,0c2.6,0,5.3,0,7.9,0c2.8,0,5.5,0,8.3,0c2.9,0,5.9,0,8.8,0"/>
		<path class="st5" d="M76.4,56.9c0.1-0.2,0.3-0.4,0.4-0.6c0.3-0.1,0.5,0.7,0.8,0.1c0.2,0.3,0.5,0.4,0.7,0.6c0.2,0.1,0.3,0,0.3,0
			c0.3-0.4,0.7-0.4,1.2-0.4c0.2,0,0.4-0.2,0.6-0.2c0.5,0.4,0.6,0.4,1.1,0c0.1,0,0.2,0,0.3,0.1c0.5,0.6,1.3,0.7,1.9,1.1
			c0.3,0.2,0.7,0.1,1.1,0.2c0,0.8,0,1.6,0,2.3c0,0.9,0,1.7,0,2.6c0,0.4-0.1,0.8,0.3,1c0.2,0.1,0.2,0.4,0.2,0.6
			c0,0.3,0.1,0.6,0.3,0.9c0.6,1,0.7,2,0,3.1c-0.2,0.3-0.2,0.8,0,1.2c0.1,0.4,0,0.8-0.3,1.1c-0.1,0.1-0.2,0.2-0.2,0.4
			c0,0.1-0.2,0.2,0,0.4c0.1,0.1,0.2,0.1,0.3,0.1c0.4-0.3,0.9,0,1.3-0.3c0.1-0.1,0.4,0,0.6,0.1c0.2,0.1,0.4,0.2,0.5,0.3
			c0.6,0.5,1.3,0.4,2,0.4c0.2,0,0-0.1,0.2,0"/>
		<path class="st5" d="M57.5,2.6c0,9.4,0,18.9,0,28.3"/>
		<path class="st5" d="M148.4,15.7c0.2-0.6,0.3-1.2,1-1.4c0.1,0,0.2-0.2,0.2-0.3c0-0.1,0-0.3,0.2-0.3c0.1,0,0.2-0.1,0.2-0.2
			c-0.1-0.4,0-0.8,0-1.3c0.2-0.4,0.8-0.7,0.7-1.4c0-0.1,0.1-0.2,0.2-0.4c0.5-0.8,1.2-1.5,1.8-2.3c0.2-0.3,0.5-0.3,0.8-0.2
			c0.1,0.2,0,0.2,0,0.4c0,0.4,0.3,0.6,0.7,0.5c0.3-0.1,0.6-0.4,1.1-0.3c0.5-0.6,0.8,0,1.1,0.2c0.9,0.5,0.6,1.3,0.7,2
			c0.1,0.8-0.1,1.5,0.1,2.3c0,0.2,0,0.3-0.1,0.5c-0.3,0.4,0.1,1,0.6,1c0.1,0,0.3-0.1,0.3,0c0.1,0.2-0.1,0.3-0.2,0.4
			c0,0.2,0.3,0.2,0.2,0.5c-0.1,0.4,0,0.6,0.5,0.6c0.1,0,0.2,0.1,0.3,0.2c0.1,0.2,0.2,0.3,0.3,0.4c0,0.2-0.3,0.2-0.4,0.3
			c0,0.3,0.3,0.2,0.4,0.4"/>
		<path class="st5" d="M116,78.1c0-0.4,0-0.8-0.4-1.2c0.4-0.2,0.4-0.6,0.4-0.9c0-0.6,0.3-1.3-0.2-1.9c0-0.1,0-0.2,0-0.3
			c0-0.2-0.1-0.4-0.3-0.4c-0.5,0-0.7-0.4-0.9-0.7c-0.4-0.5-0.5-1-1-1.5c-0.2-0.2-0.2-0.7-0.7-0.8c-0.2,0-0.5,0-0.5-0.4
			c0-0.1-0.9-0.1-1,0.1c-0.1,0.1-0.3,0.2-0.3,0.4"/>
		<path class="st5" d="M102.9,28.7c0.5,0.1,1,0.3,1.5-0.2c0.2-0.2,0.5-0.3,0.9-0.2c0.3,0.1,0.6,0.1,1,0.1c1.2,0,2.4,0,3.7,0.1
			c0.2,0,0.4-0.1,0.4,0.3c0,1.2,0,2.4,0,3.7c0,1.7-0.2,3.3-0.1,5c0,0.2,0,0.3,0,0.5"/>
		<path class="st5" d="M76.1,2.6c-0.1,0.2,0.1,0.3,0.1,0.4c0.3,0.6,0.1,1.1,0.1,1.7c0,0.8,0.3,1.5,0.6,2.2c0.1,0.2,0.2,0.4,0.2,0.7
			c0,0.8-0.1,1.6,0.2,2.4c0.1,0.2-0.1,0.3-0.1,0.5c0.2,0.5,0.1,1.1,0.6,1.6c-0.1,0.4,0.3,0.7,0,1.1c-0.1,0.1,0,0.3,0,0.4
			c0,0.2,0,0.5-0.3,0.6c-0.2,0.1-0.3,0.3-0.4,0.5c0.2,0.3,0.4,0.7,0.8,0.7c0.3,0,0.3,0.3,0.3,0.6c0,2,0,4,0,6.1"/>
		<path class="st5" d="M21.8,2.6c0,2.8,0,5.6,0,8.4c0,0.4,0,0.8,0.2,1.2c0.2,0.3,0,0.7,0.2,1.1c0.1,0.2,0.2,0.5,0.5,0.5
			c0.4,0.1,0.6,0.4,0.7,0.8c-0.6,0.5-0.5,1.5-1.1,2.1c0.3,0.4-0.1,0.6-0.3,0.8c-0.5,0.5-0.7,1.1-0.6,1.9c0.4-0.1,0.6,0.2,0.8,0.4
			c-0.2,0.1-0.1,0.3-0.2,0.5c-0.2,0.5-0.1,1.1-0.1,1.6c0,1.8-0.1,3.6-0.1,5.5"/>
		<path class="st5" d="M103.2,17.4c0.2,0.3,0.1,0.5-0.1,0.7c-0.2,0.5-0.5,0.9-0.3,1.5c0,0.1,0,0.3-0.2,0.3c-0.2,0-0.4,0.2-0.3,0.5
			c0.1,0.7-0.1,1.4-0.3,1.9c-0.3,0.5-0.1,1-0.3,1.5c0,0.1,0.1,0.3,0.1,0.3c0.5,0.5,0.3,1.1,0.2,1.6c-0.1,0.6-0.1,1.1,0.3,1.6
			c0.3,0.5,0.5,1.1,0.5,1.7c0,0.5,0,1,0,1.5c0,2,0,3.9-0.1,5.9c0,0.2-0.1,0.3-0.2,0.5c-0.2,0.3-0.2,0.8,0,1c0.2,0.4,0,0.8,0.3,1.2
			c0,0,0,0.1,0,0.1c-0.5,0.4-0.6,1.1-1.1,1.5c-0.2,0.1,0.2,0.5-0.2,0.7c0.1,0.3-0.2,0.6-0.1,1"/>
		<path class="st5" d="M147.7,15.9c-0.6-0.1-0.6-0.1-0.9,0.5c-0.1,0.3-0.4,0.4-0.7,0.4c-1.1-0.1-2.1-0.2-3.2-0.1
			c-1.8,0.1-3.7,0-5.5,0.1c-0.6,0-1.2,0.5-1.6,0.9c-0.4,0.3-0.9,0.6-0.9,1.2c-0.4,0.1-0.6,0.6-1.1,0.6c-0.3,0-0.4,0.2-0.3,0.5
			c0,0,0,0.2,0.1,0.1c0.2-0.1,0.5-0.1,0.4,0.2c0,0.2-0.1,0.5-0.4,0.6c0,0,0,0-0.1,0.1c0.1,0.2,0.2,0.3,0.3,0.5
			c0.1,0.1,0.1,0.3,0,0.5c-0.5,0-0.9,0.2-1.3,0.6c-0.4,0.3-0.8,0.5-1.3,0.3c-0.3-0.1-0.7,0-0.9,0.1c-0.2,0.1-0.4,0-0.5-0.1
			c-0.4-0.3-0.9-0.3-1.4-0.4c-0.8-0.1-1.6,0.3-2.5,0.3c0.2,0.3-0.2,0.7,0.3,0.8c0.1,0,0.3,0.9,0.2,1c-0.3,0.2-0.4,0.7-0.9,0.8
			c-0.4,0.1-0.7,0.5-1,0.7c-0.3,0.2-0.6,0.4-1,0.5c-0.4,0-0.7,0.4-1,0.6c-0.8,0.5-1.7,0.6-2.6,1c-0.2,0.1-0.4,0.2-0.5,0.4
			c-0.2,0.5-0.6,0.7-1.2,0.6c-0.5-0.1-0.9,0.1-1.3,0.2c-0.3,0.1-0.5,0.1-0.8,0c-0.1,0-0.1-0.1-0.1-0.1c-0.9,0.2-1.4-0.7-2.2-0.9
			c-0.1,0-0.2,0-0.3,0c-1.1,0.1-2.2,0-3.3,0.1"/>
		<path class="st5" d="M146.5,16.9c0,0.1,0.2,0.1,0.1,0.3c-0.2,0.3-0.4,0.7-0.2,1c0.1,0.2-0.1,0.3-0.1,0.3c-0.2,0.3-0.5,0.6-0.9,0.7
			c-0.2,0-0.3,0.2-0.3,0.4c0.1,0.6-0.2,1-0.4,1.5c-0.2,0.3-0.3,0.7-0.5,1c-0.1,0.1-0.1,0.2,0,0.4c0.1,0.2,0.1,0.5-0.1,0.6
			c-0.1,0.2-0.1,0.4-0.1,0.6c0,0.1,0,0.3-0.1,0.4c-0.3,0.3-0.1,0.5,0,0.8"/>
		<path class="st5" d="M148.4,15.8c-0.1-0.1-0.2-0.3-0.4-0.2c-0.2,0.1-0.2,0.2-0.2,0.4c0,1,0.1,1.9,0.1,2.9c0,1.2,0.2,2.3,0.2,3.5
			c0,0,0,0.1,0,0.1c0.3,0.4,0.3,0.9,0.7,1.2"/>
		<path class="st5" d="M100.2,10.4c0.1-0.3,0.6-0.3,0.7-0.7c0.2,0.3,0.5,0.3,0.7,0.3c0.7,0.1,1.1,0.6,1.4,1.1
			c0.1,0.2,0.2,0.2,0.4,0.2c0.4,0.1,0.7-0.2,1.1,0.2c0.1,0.1,0.3,0,0.3-0.1c0.2-0.2,0.3,0,0.5,0.1c0.6-0.6,1.4-1,2.2-0.8
			c0.6,0.1,1.2-0.2,1.8-0.3c0.1,0,0.2-0.1,0.4,0c-0.1,0.2-0.1,0.6-0.2,0.8c0.6,0.2,1.2,0.4,1.9,0.1c0.2,0.3,0.5,0.6,0.3,1
			c0.4,0.3,0.6,0.9,1.2,0.9"/>
		<path class="st5" d="M102,25.8c-0.5-0.1-1,0-1.5,0c-1.9,0-3.8,0-5.7,0c-0.2,0-0.3,0-0.5,0"/>
		<path class="st5" d="M92.7,59.7c-0.2,0.2-0.5,0-0.7,0c-2.3,0-4.7,0-7,0"/>
		<path class="st5" d="M135.8,35.3c-0.7-0.2-0.9-0.1-0.8,0.7c0,0.1,0,0.3,0,0.5c-0.1,1.2,0.1,2.4,0.1,3.7c0.4,0,0.9,0.1,1.3,0.1
			c0.3,0,0.4,0.1,0.3,0.4c-0.1,0.5-0.5,0.7-0.8,1.1c-0.1,0.1-0.4,0.1-0.5,0.2c-0.2,0.1-0.4,0-0.5-0.1c-0.2-0.2,0.1-0.3,0-0.5
			c-0.3-0.1-0.4-0.4-0.4-0.6c-0.1,0.1-0.3,0.1-0.4,0.2"/>
		<path class="st5" d="M120.8,63.1c-0.1-0.1-0.1-0.2-0.3-0.2c-0.3,0.1-0.4-0.1-0.3-0.3c0.1-0.4-0.2-0.7-0.3-1.1
			c0-0.1-0.1-0.2-0.2-0.2c-0.3,0-0.1-0.3-0.3-0.4c0.2-0.3-0.1-0.6-0.1-0.9c0-0.2-0.1-0.4-0.3-0.5c-0.5-0.1-0.8-0.6-0.9-0.9
			c-0.1-0.6-0.7-0.7-0.8-1.1c-0.2-0.5-0.6-0.6-0.9-0.9c-0.3-0.4-0.5-0.8-0.7-1.2c-0.2-0.3-0.1-0.8-0.7-0.9c-0.3,0-0.6-0.5-0.9-0.8
			c0.2-0.6,0.6-1,1.3-1.2c0.4-0.1,0.8-0.3,1.1-0.5c0.2-0.2,0.5,0.2,0.6-0.1c0.9,0.2,1.8,0,2.7,0.1c0.3,0,1,0.4,1.2,0.6
			c0.2,0.2,0,0.5,0.2,0.7c0.8,0,1.7,0,2.6,0c0.3,0,0.5,0.1,0.8,0.3c0.9,1,1.8,2,2.7,3"/>
		<path class="st5" d="M114.6,52.7c-0.2-0.1-0.3,0-0.5,0c-4.2,0-8.4,0-12.7,0c-1.9,0-3.7,0-5.6,0c-0.2,0-0.4,0.1-0.5-0.1
			c-0.2,0.3-0.1,0.7-0.6,0.7c-0.1,0-0.2,0.4-0.3,0.6c-0.1,0.5-0.1,1-0.6,1.3c-0.2,0.1-0.1,0.4-0.2,0.5C93.3,56,93.1,56.5,93,57"/>
		<path class="st5" d="M113.8,28.5c0.4-0.6,0.8-1.2,1.1-1.9c0.1-0.3,0.3-0.4,0.6-0.5c0.1-0.2-0.2-0.2-0.1-0.3
			c0.2-0.2,0.2-0.5,0.4-0.6c0.3-0.2,0.3,0.2,0.6,0.3c0.1-0.7,0.5-1.2,0.2-1.9c-0.3-0.8-0.5-1.7-0.5-2.6c0-0.5-0.4-0.6-0.7-0.9
			c-0.3,0.2-0.5,0.4-0.8,0.4c-0.2,0-0.3,0.2-0.4,0.4c-0.1,0.3-0.4,0.5-0.6,0.8c-0.1,0.2-0.7,0.1-0.8,0c-0.3-0.3-0.2-0.6,0-0.8
			c0.1-0.2,0.3-0.4,0.5-0.4c0.3-0.1,0.5-0.3,0.4-0.6c0-0.3,0.2-0.3,0.3-0.4c0.3-0.1,0.3-0.3,0.3-0.5c0-0.3,0-0.6,0.1-0.9
			c0.1-0.2,0-0.6-0.3-0.8c-0.3-0.3-0.2-0.4,0.1-0.6c0.1,0,0.1-0.1,0.1-0.2c-0.3-0.4-0.4-0.8-1-0.9c-0.4,0-0.6-0.3-1-0.3
			c-0.1,0-0.6-0.1-0.5-0.5c0-0.1-0.1-0.1-0.2-0.1c-0.4-0.1-0.8-0.2-1.2-0.4c-0.2-0.1-0.4,0-0.6,0.1c-0.2,0.2-0.4,0.3-0.5,0.5
			c0.1,0.3,0.4,0.3,0.5,0.5"/>
		<path class="st5" d="M25.3,7.6c0.3,0.2,0.3,0.7,0.7,0.8c0.6,0.2,0.9,0.8,1.4,1.2c0.1,0.1,0.3,0.2,0.4,0.4c0.2,0.5,1,0.8,1.5,0.7
			c0.2,0.4-0.1,0.8-0.1,1.3c0,0.4-0.3,0.8,0,1.2c0.1,0.1,0.1,0.3-0.1,0.4c-0.2,0.1-0.3,0.3-0.4,0.4c0.2,0.4,0,0.9,0.7,1
			c0.3-0.2,0.7-0.3,0.9-0.7c0.4,0,0.5,0.4,0.6,0.6c0.2,0.6,0.4,1.1,0.8,1.6c0.1,0.1,0.2,0.3,0.1,0.5c-0.1,0.3,0.1,0.5,0.5,0.4
			c0.5,0,0.5,0.4,0.6,0.7c0,0.4,0.2,0.6,0.5,0.8c0.4-0.5,0.6-0.5,1.4-0.2c0.1-0.5,0.5-0.4,0.9-0.4"/>
		<path class="st5" d="M134.8,35.6c-2,0-3.9,0-5.9,0c-0.3,0-0.7,0-0.8,0.4c-0.1,0-0.3-0.2-0.4-0.1c-0.3,0.5-0.7,0.4-1.1,0.1
			c-0.5,0.6-1.3,0.7-1.9,1.4c-0.1-0.6,0-1.2-0.1-1.7"/>
		<path class="st5" d="M129.6,37.2c-0.2,0.1-0.2,0.3-0.3,0.5c-0.5-0.3-0.8-0.7-1.3-1c-0.4,0.3-0.1,0.9-0.5,1.3
			c-0.3,0.4-0.8,0.6-1.1,1c-0.3-0.3-0.4-0.1-0.5,0.1c-0.1,0.3-0.3,0.6-0.5,0.9c-0.2,0.3-0.4,0.3-0.7,0.1c-0.1-0.1-0.1-0.3-0.3-0.4
			c0,0-0.1,0-0.2,0c0,0.8-0.8,1.2-0.9,2c0,0.1-0.2,0.2-0.3,0.3c-0.5,0.4-0.4,1-0.6,1.5c-0.1,0.2-0.3,0.4-0.4,0.3
			c-0.3-0.1-0.5-0.1-0.7,0.1c-0.4-0.3-0.4,0.4-0.8,0.4"/>
		<path class="st5" d="M92.9,57c0.2,0.1,0.2,0.2,0.1,0.4c-0.3,0.3-0.3,0.6-0.2,1.1c0.1,0.3,0.3,0.6,0,0.9c-0.1,0.1,0,0.2,0,0.3
			c0.1,0.2,0.2,0.5,0,0.7c-0.1,0.1,0.2,0.2,0.2,0.3c-0.1,0.1-0.2,0.2-0.2,0.3c0,0.1,0.1,0.1,0.1,0.1c0.1,0,0.3,0.1,0.2,0.2
			c-0.1,0.2,0,0.3,0.1,0.5c0.3,0.4,0.2,0.5-0.2,0.7c-0.1,0-0.1,0.1-0.2,0.1c0.1,0.1,0.1,0.2,0.3,0.2c-0.2,0.4-0.3,0.8-0.7,1
			c-0.1,0.1-0.3,0.8-0.3,1c-0.1,0.3-0.3,0.6-0.4,1c-0.1,0.4-0.1,0.7,0,1.1c1.7,0,3.3,0,5,0c0,0.2,0,0.5,0,0.6
			c-0.2,0.4-0.2,0.8,0.1,1.2c0.3,0.3,0.2,0.6,0.3,1c0.1,0.2-0.1,0.3-0.3,0.3"/>
		<path class="st5" d="M142.2,30.5c-0.3,0,0,0.8-0.4,0.9c-0.4,0.1-0.8,0.1-1.1,0.2c-0.5,0.2-1,0.3-1.1,0.9c0,0.2-0.4,0.2-0.5,0.5
			c0.1,0.2,0.4,0.1,0.7,0.2c0,0.3,0,0.6-0.1,1c-0.2,0.5-0.4,1-0.4,1.6c0,0.5-0.5,0.7-0.7,1c-0.3,0.3-0.5,0.7-0.7,1
			c-0.3,0.5-0.6,0.6-0.6,0.5"/>
		<path class="st5" d="M144.6,30.5"/>
		<path class="st5" d="M2.3,31.8c-0.2,0.2-0.3,0.4-0.4,0.6c-0.4,0.5-0.3,1.2,0.2,1.6c0.6,0.5,1,1.1,1.3,1.9c0,0.1,0.1,0.3,0,0.4
			c-0.2,0.5-0.2,0.9,0.1,1.3c0.2,0.3,0.3,0.6-0.1,0.9c1,0.8,1.6,1.8,2.4,2.7c-0.1,0.2-0.2,0.3-0.3,0.5c0.7,0.1,0.7,0.6,1.3,0.8"/>
		<path class="st5" d="M109.9,15.3c-0.2,0.2-0.4,0.2-0.6,0.2c-0.2,0-0.4,0.1-0.5,0.2c-0.2,0.1-0.1,0.4-0.1,0.5
			c-0.1,0.4-0.1,0.8-0.3,1.2c-0.1,0.2-0.2,0.2-0.3,0.1c-0.2-0.1-0.1-0.3-0.1-0.3c0.2-0.3,0-0.7,0.2-1c0.1-0.1,0-0.1-0.1-0.2
			c-0.2,0.1-0.3,0.2-0.5,0.4c-0.1,0.2-0.3,0.4-0.5,0.4c-0.2,0-0.3,0.3-0.4,0.6c-0.3,0.6-0.3,1.1-0.4,1.7c0,0.1,0,0.3-0.2,0.4
			c-0.6,0.4-0.4,1-0.2,1.5c-0.1,0.2-0.3,0.3-0.4,0.6c0.3,0.5,0.3,1.1,0.7,1.5"/>
		<path class="st5" d="M106.1,23.1c0.1,0.5,0.2,1,0.2,1.5c-0.1,0.7-0.1,1.4-0.4,2c-0.3,0.5-0.5,1.1-0.9,1.6"/>
		<path class="st5" d="M24.5,2.6c0,0.9,0,1.9,0,2.8c0,0.5,0.2,0.9,0.5,1.2c0.2,0.2,0.3,0.5,0.5,0.7c0.1,0.1,0,0.2-0.1,0.2"/>
		<path class="st5" d="M100.3,9.1c-0.2-0.4-0.2,0-0.4,0.1c-0.2,0-0.3-0.2-0.5-0.3C99.3,9,99.1,9.1,99,9.3c-0.5,0.5-1,0.8-1.7,0.9
			c-0.6,0.1-1.2,0.2-1.7,0.6c-0.2,0.2-0.6,0-0.7,0.3"/>
		<path class="st5" d="M147.6,29.1c-0.2,0-0.5,0.1-0.6,0.3c-0.3,0.4-0.8,0.5-1.3,0.5c-0.2,0-0.5-0.1-0.8,0.1
			c-0.1,0.1-0.2,0.1-0.2,0.1c-0.3-0.3-0.6-0.1-0.9-0.1c-1,0-1.8,0.4-2.6,1c-0.2,0.2-0.5,0.1-0.7-0.2c0.2-0.1,0.4-0.2,0.5-0.3
			c-0.1-1.1,0-2.1,0.2-3.1"/>
		<path class="st5" d="M121.9,33.5c0.1,0.7,0,1.4,0.1,2.2c1,0,2,0,2.9,0c1.1,0,2.3-0.1,3.4,0"/>
		<path class="st5" d="M121.9,27.7c0,1.8,0,3.5,0,5.3c0,0.1,0.1,0.3,0,0.4c-0.1,0.1-0.2,0.1-0.2,0c-0.1-0.3-0.1-0.6-0.1-0.9
			c0-0.1,0.2-0.1,0.3-0.1"/>
		<path class="st5" d="M6.3,6.8c0.1-0.3,0.2-0.7-0.2-0.9C5.8,6,5.5,6,5.4,5.8C5.2,5.5,5,5.5,4.8,5.5c-0.6,0.1-1.1,0-1.7,0
			c-0.5,0-1-0.4-1.6-0.6C1.4,4.9,1.2,4.7,1,4.6C0.6,5.1,1,5.7,0.9,6.2c0,0.2,0.2,0.2,0.3,0.3c0.2,0.1,0.3,0.3,0.4,0.6
			c0.1,0.3,0,0.7,0.2,1c0.2,0.3,0.3,0.6,0.4,1c0,0.3,0.7,0.6,1,0.6"/>
		<path class="st5" d="M102.4,42.4c-0.2-0.2,0-0.3,0.1-0.3c0.5,0,0.9,0.1,1.3,0.5c0.1-0.4,0.4-0.6,0.8-0.6c0.1,0.1,0.2,0.3,0.4,0.3
			c0.3-0.3,0.6-0.7,0.9-1c0.2,0.2,0.3,0.5,0.6,0.6c0.4,0,0.5,0,0.6-0.4c0.1-0.2,0-0.6,0.4-0.6c0.1,0,0.2-0.1,0.2-0.2
			c0-0.5,0.6-0.6,0.7-1c0-0.1,0-0.3-0.1-0.4c0.2-0.1,0.4-0.3,0.7-0.1c0.2,0.2,0.4,0,0.5-0.1c0.2-0.2,0.5,0,0.6-0.3
			c0.1-0.2-0.2-0.4-0.1-0.7c0,0-0.1-0.1-0.1-0.1c0-0.2,0.2-0.2,0.3-0.3c0.5,0.3,1.4,0.1,1.5,1c0,0.2,0.1,0.3,0.3,0.3
			c0.4-0.1,0.7,0.1,1,0.4c0.1,0.1,0.2,0.2,0.3,0.1c0.3-0.4,0.6-0.1,0.9,0.1c0.2,0.1,0.3,0,0.5-0.1c0.2-0.1,0.4-0.3,0.7-0.3"/>
		<path class="st5" d="M93.8,10.1c-0.3,0.3-0.2,0.7-0.6,0.9c0.2,0.3,0.3,0.1,0.5,0c0.2-0.1,0.3-0.2,0.5-0.1c0.2,0.1,0.5,0.3,0.7,0.3
			c0.1,0,0.2,0.1,0.3,0.2c0.3,0.7,1.1,0.7,1.7,0.8c0.6,0.1,1.2,0.4,1.8,0.6c0.5,0.2,1,0.3,1.6,0.4c0.4,0.1,0.9-0.1,0.9,0.6
			c0,0,0.1,0.1,0.2,0.1c0.3,0.1,0.6,0.1,0.6,0.6c0,0.3,0,0.6-0.2,0.8c0.2,0.4,0.5-0.1,0.6,0.2c-0.3,0.3-0.3,0.6,0.1,0.9
			c0.1,0,0.1,0.3-0.1,0.4c-0.7,0.3-0.7,1-1,1.5c0.2,0.2,0.3,0.3,0.4,0.1c0.2-0.2,0.4-0.4,0.5-0.7c0.1-0.4,0.4-0.4,0.8-0.4
			c0.4,0,0.6-0.1,0.6-0.5c0-0.3,0.4-0.5,0.3-0.9"/>
		<path class="st5" d="M141.4,21.6c0,0.2,0.3,0.2,0.4,0.3c0.1,0.2,0.2,0.4,0.1,0.5c-0.1,0.2-0.1,0.5-0.1,0.7
			c0.1,1.3-0.2,2.5-0.6,3.7c0,0.1,0,0.3-0.1,0.4c0.2,0.2,0.5,0.2,0.8,0.2c1,0,1.9,0,2.9,0c0.6,0,1.2,0.2,1.9,0.1
			c0.4,0,0.3,0.3,0.4,0.5c0.1,0.2,0,0.4,0.4,0.5c0.2,0,0.2,0.3,0.2,0.5"/>
		<path class="st5" d="M148.4,24.4c-0.3-0.2-0.6,0-0.8,0.2c-0.3,0.3-0.7,0.4-1.1,0.2c-0.1,0-0.2,0-0.3,0c-1.5,0.1-2.9-0.1-4.4-0.1"
			/>
		<path class="st5" d="M110.3,13.7c-0.1,0-0.2-0.1-0.2-0.2c-0.4-0.6-1.1-0.5-1.7-0.6c0,0-0.1,0-0.1,0c-0.4,0.5-1,0.4-1.5,0.5
			c-0.4,0.1-0.7-0.1-1.1-0.2"/>
		<path class="st5" d="M85.2,71.4c0.1,0.2,0.2,0.1,0.1,0.3c-0.4-0.2-0.7,0-0.9,0.2c-0.5,0.4-1,0.1-1.5,0.1c-0.1-0.3,0.4-0.6,0-0.7
			c-0.3-0.2-0.4,0.3-0.5,0.5c-0.1,0-0.2-0.2-0.4-0.1c-0.2,0.5,0.4,0.8,0.3,1.3c-0.1,0.1-0.2,0.4-0.5,0.4c-0.1,0-0.1,0.1-0.1,0.1
			c0,0.8-0.8,0.9-1.2,1.4c-0.2,0.2-0.5,0-0.7,0.2c-0.2,0.2-0.5,0.3-0.8,0.4c-0.2-0.3-0.6-0.3-0.8-0.6c-0.1,0.1-0.2,0.1-0.2,0.2"/>
		<path class="st5" d="M132.2,44.8c0.2,0.4,0.7,0.6,0.7,1.1c0.3-0.1,0.5,0,0.7-0.3c0.2-0.2,0.7,0.1,0.7,0.3c0,0.2,0.1,0.6,0,0.7
			c-0.2,0.3-0.1,0.5-0.1,0.8c0,0.2,0.2,0.6-0.3,0.6"/>
		<path class="st5" d="M2.2,27.6c0,0.2-0.2,0.5-0.1,0.6c0.1,0.2,0.2,0.4,0.3,0.7c0.3,0.5,0,1-0.1,1.5c-0.1,0.4,0,0.7,0,1.1
			c0,0.1-0.1,0.3,0,0.2"/>
		<path class="st5" d="M93.9,10c0-0.2-0.2-0.1-0.3-0.2c-1.1,0.4-2.1,1.3-3.4,0.8"/>
		<path class="st5" d="M129.1,55.6c0,0.2,0.1,0.3,0,0.4c-0.1,0.2-0.1,0.5-0.6,0.4c-0.7-0.1-1.6,0.1-2.1,0.8c-0.3,0.4-0.6,0.9-1,1.3
			c-0.2,0.2,0,0.3,0.1,0.4c-0.2,0.3-0.4,0.5-0.5,0.7c-0.3-0.1-0.4,0-0.6,0.2c-0.2,0.3-0.2,0.8-0.8,0.6"/>
		<path class="st5" d="M117.6,81.8c0.2,0.3,0.1,0.6,0.1,0.9c0,0.2-0.1,0.4,0.3,0.3c0.1,0,0.4,0.2,0.3,0.5c-0.1,0.3,0.1,0.6,0.1,0.9
			c0.1,0.6,0.7,0.7,1,1c0.2,0.1,0.4,0.2,0.5,0.4"/>
		<path class="st5" d="M116,78.1c0.1,0.1,0.5,0.1,0.4,0.3c-0.1,0.1,0.1,0.2,0,0.4c-0.2,0.4-0.4,0.7-0.1,1.2c0.3,0.5,0.4,1,0.7,1.5
			c0.1,0.2,0.4,0.4,0.6,0.2"/>
		<path class="st5" d="M118.7,46.9c0,0.4-0.1,0.8-0.5,1c-0.3,0.1-0.3,0.5-0.5,0.8c-0.6-0.4-1,0.2-1.4,0.5c-0.1-0.1-0.1-0.2-0.2-0.3
			c-0.1,0-0.1,0-0.2,0c-0.2,0.3-0.5,0.4-0.7,0.7c-0.1,0.3-0.6,0.2-0.8,0.5c-0.2,0.2-0.5,0.3-0.7,0.6c-0.6-0.2-1-0.1-1.3,0.5
			c-0.1,0.2-0.2,0.3-0.2,0.5c-0.1,0.3-0.3,0.1-0.5,0c-0.2,0.3-0.2,0.6-0.2,0.9"/>
		<path class="st5" d="M135.9,41.9c-0.1,0.6-0.3,1.2-0.8,1.7c-0.2,0.2-0.3,0.4-0.4,0.7c-0.1,0.2-0.1,0.5-0.3,0.7
			c-0.1,0-0.2-0.1-0.2-0.2c0.2-0.6,0.1-1.3,0.6-1.8c0.2-0.2,0.1-0.6,0.3-0.8"/>
		<path class="st5" d="M137.8,29.8c-0.1,0.2-0.4,0.2-0.4,0.6c0,0.3-0.3,0.6-0.7,0.7c0.1,0.2,0.2,0.3,0.2,0.5
			c-0.1,0.1-0.3,0.3-0.3,0.5c-0.1,0.2-0.3,0.5,0.2,0.6c0,0,0.1,0,0.1,0.1c0,0.7,1,0.8,0.9,1.5c-0.3,0.2-0.9,0.3-1,0.8
			c0,0-0.1,0.1-0.2,0.1c-0.6-0.1-0.7,0.5-1,0.8c-0.2,0.2,0.2,0.9,0.5,1c0.1,0,0.2,0.1,0.2,0.2c0.2,0.4,0.6,0.5,1,0.4
			c0.1,0.2,0,0.4,0.1,0.6"/>
		<path class="st5" d="M135.9,37c0.2,0.4,0,0.9,0.3,1.3c0.2,0.3,0.3,0.6,0.6,0.7c-0.3,0.4,0.3,0.7-0.1,1.1"/>
		<path class="st5" d="M121.7,33.5c-0.2,0.6-0.4,1.2-0.7,1.8c0,0.1,0,0.2,0,0.3c0.1,0.2,0.1,0.4-0.2,0.6c-0.2,0.1-0.3,0.2-0.5,0.4
			c-0.2,0.2-0.4,0.6-0.8,0.3c-0.2-0.1-0.9,0.6-0.9,0.8c0,0.2-0.2,0.4,0,0.6c0.1,0.2-0.3,0.1-0.4,0.3"/>
		<path class="st5" d="M131.2,40.5c0.1,0.2,0.3-0.2,0.4,0.1c-0.1,0.3,0.1,0.5,0.4,0.6c0.3,0.1,0.7,0.3,0.9,0.6
			c0.1,0.1,0.1,0.2,0.3,0.2c0.2,0,0.3,0.2,0.4,0.3c-0.2,0.3-0.3,0.7-0.4,1c-0.1,0.2,0.1,0.3,0.2,0.4c0.1,0.1,0.3,0.2,0.2,0.4
			c-0.2,0.1-0.2-0.2-0.4-0.1"/>
		<path class="st5" d="M95.8,72.4c0.1,0.3-0.3,0.6-0.1,1c0,0-0.1,0.2-0.3,0.2c-0.2,0-0.2-0.1-0.2-0.3c0-0.3-0.2-0.3-0.3-0.6
			c-0.2,0.3-0.5,0.1-0.6,0.3c-0.1,0.2-0.2,0.4-0.4,0.6c-0.3-0.2-0.6-0.4-1-0.4"/>
		<path class="st5" d="M104.3,13.5c-0.1,0.2-0.2,0.4-0.2,0.6c0.3,0.3,0.5,0.2,0.6-0.2c0.1-0.5,0.4-0.3,0.7-0.3
			c0.2,0,0.2,0.2,0.1,0.3c-0.2,0.2-0.3,0.4-0.3,0.6"/>
		<path class="st5" d="M100.2,69.1c-0.1,0.2-0.2,0.2-0.4,0.1c-0.1,0-0.2-0.3-0.3-0.1c-0.5-0.6-1,0.2-1.5,0c-0.1,0-0.2,0.2-0.3,0.3
			c-0.2,0.1-0.2,0.7-0.6,0.3"/>
		<path class="st5" d="M155.4,18.5c-0.5-0.4-1.5,0.2-1.8,0.3c0.1,0.2,0.2,0.4,0,0.6c-0.1,0.1-0.3,0.3-0.2,0.6c0,0.3-0.4,0.3-0.7,0.1
			c-0.1,0.1-0.2,0.3-0.4,0.5c-0.3-0.5-0.5-0.1-0.8-0.1"/>
		<path class="st5" d="M102,8c-0.7-0.2-1.4,0-2,0.5c-0.2,0.1-0.3,0.3-0.3,0.5"/>
		<path class="st5" d="M134.2,50.2c-0.2-0.2-0.3-0.3-0.1-0.6c0.1-0.1,0.1-0.3,0-0.4c-0.2-0.2-0.3-0.1-0.4,0c0,0-0.2,0-0.3,0
			c-0.3,0-0.5-0.1-0.8,0c-0.1,0.1-0.2,0-0.3-0.2c0-0.1,0.8-0.5,0.8-0.6"/>
		<path class="st5" d="M107.7,69.6C107.6,69.6,107.8,69.5,107.7,69.6c-0.2,0.2,0,0.4,0.2,0.5c0.1,0,0.3,0,0.3,0.1
			c0,0.6,0.8,0.7,0.4,1.4c0.7-0.1,1.3-0.2,1.7-0.5c0.4-0.3,0.3-0.4,0.7-0.4"/>
		<path class="st5" d="M104,14.2c-0.5,0.3-0.7,0.9-1,1.3c-0.2,0.3-0.4,0.5-0.6,0.8"/>
		<path class="st5" d="M145.9,27.6c-0.1,0.5,0,1,0,1.5c0,0.3,0,0.5-0.1,0.8"/>
		<path class="st5" d="M133.2,43.1"/>
		<path class="st5" d="M151.3,20.2c0,0.3,0.1,0.7-0.5,0.7c-0.3,0-0.7,0.2-0.6,0.7c0,0,0,0.1,0,0.1c-0.5,0.2-0.3,0.8-0.8,1
			c0,0.7-0.6,1.1-0.8,1.7c-0.1,0.3,0.1,0.5,0.3,0.7c0.2,0.2,0.3,0.4-0.2,0.5c-0.1,0-0.1,0.1-0.2,0.2c-0.2,0.2-0.2,0.5-0.5,0.7
			c0.1,0-1.1,1.4-0.9,1.2"/>
		<path class="st5" d="M141.6,16.9c-0.1,0.7-0.4,1.4-0.1,2.2c0.1,0.2,0,0.4-0.1,0.6c-0.3,0.5-0.1,0.9,0,1.4c0,0.1,0.1,0.2,0.1,0.3
			c0,0.1-0.1,0.1-0.1,0.2"/>
		<path class="st5" d="M94.7,69.8c0.2,0.6,0.9,0.8,1.3,0.4c0.2-0.2,0.2,0.1,0.4,0.1"/>
		<path class="st5" d="M112.2,13.3c-0.4,0.2-0.7,0-1.1,0c-0.8,0-0.8-0.1-0.9,0.7"/>
		<path class="st5" d="M90.9,71c0,0.2,0,0.3,0.1,0.3c0.2,0,0.3,0,0.5,0c0,0.7,0.5,0.7,0.9,0.8"/>
		<path class="st5" d="M130.6,54c0.1,0.1,0.3,0.1,0.3,0c0.3-0.4,0.8-0.4,1.2-0.5c0.2,0,0.2-0.2,0.3-0.3c0.2,0,0.2,0.2,0.3,0.2
			c0.3-0.1,0.5-0.5,0.7-0.7c-0.4-0.3-0.6-0.2-1.3,0.1"/>
		<path class="st5" d="M128.5,35.7c0.3,0.3,0.3,0.3,0.7,0.3c0,0.3,0.3,0.6,0.4,0.9c0,0.1,0.2,0.2,0.3,0.2c0.2,0.1,0.6,0.1,0.3,0.5
			c-0.1,0.1,0,0.1,0.1,0.1c0.3,0.2,0.6,0.6,1.1,0.5c0.3-0.1,0.3,0.2,0.5,0.3c-0.3,0.4-0.6,0.9-0.9,1.3c-0.2,0.3,0.1,0.5,0.3,0.7"/>
		<path class="st5" d="M3,10.6c0.1,0.5,0,0.9-0.3,1.3c0.1,0.3,0.4,0.3,0.5,0.6"/>
		<path class="st5" d="M117.9,43.7c0.1,0.5,0.6,0.7,1,1c0.4-0.1,0.7-0.4,1.1-0.2c0.2,0.1,0.4-0.2,0.7-0.1"/>
		<path class="st5" d="M78.2,75.2c-0.1-0.2-0.3-0.3-0.4-0.1c-0.2,0.1,0,0.3,0.1,0.4c0.1,0.2,0.1,0.5,0.5,0.6c-0.4,0.1-0.8,0.5-1-0.2
			c-0.4,0.2-0.2,0.4,0,0.6c-0.4,0.3-1,0.2-1.3,0.7c0.1,0.3,0.6,0.5,0.1,0.8c-0.3-0.2-0.6-0.2-0.9,0c0.3,0.2,0.6,0.3,0.8,0.6
			c-0.1,0.3-0.3,0.5-0.5,0.6c0.1,0.1,0.1,0.2,0.1,0.3c-0.3,0.1-0.7,0.1-0.8,0.5"/>
		<path class="st5" d="M134.2,50.2c0.3-0.2-0.1-0.9,0.7-0.8c0.3,0.2,0,0.6,0.1,0.9c0,0-0.1,0.1-0.1,0.1c-0.5,0-0.6,0.5-0.8,0.8
			c-0.3,0.3-0.5-0.1-0.7,0c-0.1-0.2-0.4-0.2-0.4-0.5"/>
		<path class="st5" d="M38.2,18.6c-0.4-0.2-0.5-0.7-0.8-0.9C37,18,37,18,37,18.3c-0.5,0.1-1,0.1-1.5,0.1"/>
		<path class="st5" d="M113,13.4c0.3,0.1,0.5,0.2,0.8-0.1c-0.1-0.3-0.3-0.3-0.4-0.4c-0.2,0.1-0.2,0.3-0.4,0.4"/>
		<path class="st5" d="M130.6,54c0,0.1,0.1,0.2-0.4,0.5c-0.4,0.2-0.8,0.8-1.1,1.2"/>
		<path class="st5" d="M90,72c0.1,0.3,0.8,0.2,1,0.3c0.1-0.4,0-0.6-0.3-0.5c-0.4,0.1-0.6,0-0.7-0.4c0.2-0.2,0.6-0.2,0.9-0.4"/>
		<path class="st5" d="M132.3,51.1c0.1,0,0.6,0.4,0.7,0.5c-0.1,0.2-0.4,0.2-0.3,0.6c0.1,0.3-0.2,0.6-0.4,0.7"/>
		<path class="st5" d="M133.1,40.6"/>
		<path class="st5" d="M122.2,87.6c-0.1,0.2-0.5-0.1-0.6,0c-0.6,0.5-0.9,0-1.2-0.3c-0.4-0.4-0.4-0.9-0.6-1.4c0,0,0,0,0,0
			c0.1-0.1,0.1-0.1,0.1,0"/>
		<path class="st5" d="M131.7,40.6c0.2,0.1,0.2-0.2,0.4-0.2c0.3,0.1,0,0.3,0.2,0.5c0.3,0,0.6,0.3,1,0.2"/>
		<path class="st5" d="M132.2,44.8c0.2,0.5,0.9,0.5,1.2,0.5c-0.2-0.2-0.2-0.5-0.4-0.7c-0.2-0.2,0.1-0.5,0.1-0.8"/>
		<path class="st5" d="M97.6,71.1c-0.1-0.1-0.2-0.1-0.3,0.1c-0.1,0.2-0.2,0.3-0.4,0.4c-0.2,0.1-0.3,0.4-0.1,0.4
			c0.4,0.1,0.4,0.7,0.9,0.8c0.4,0,0.8,0.3,0.9,0.9c0,0.1-0.2,0.2-0.3,0.3c0-0.4-0.5-0.2-0.6-0.4c-0.1-0.4-0.5-0.3-0.8-0.5
			c-0.1,0-0.2,0-0.2-0.1c0.1-0.6-0.3-0.5-0.7-0.5c-0.1,0-0.2-0.2-0.3-0.2"/>
		<path class="st5" d="M104.4,15.3c-0.1,0.4-0.4,0.6-0.7,0.8c-0.4,0.3-0.5,0.7-0.5,1.2"/>
		<path class="st5" d="M118.1,38.5c-0.1-0.1-0.2-0.2-0.3-0.3c-0.2,0.3-0.5,0.6-0.5,1.1c0,0.4-0.4,0.6-0.4,1c0,0-0.4,0.2-0.6,0.2"/>
		<path class="st5" d="M95.4,51.3c0-0.1,0.1-0.1,0.1-0.2c0.1,0,0.2,0.1,0.2,0.2c-0.3,0.3-0.1,0.5,0,0.7c-0.3,0.1-0.3,0.3-0.4,0.5"/>
		<path class="st5" d="M97.5,71c0-0.2-0.2-0.3-0.3-0.5c-0.2,0-0.1,0.3-0.3,0.4c-0.2,0-0.3-0.6-0.4-0.7"/>
		<path class="st5" d="M106.6,69.2c0.2,0.1,0,0,0-0.3c-0.3-0.3-0.7-0.4-1.1-0.2c-0.4,0.2-0.7,0.4-1.2,0.1c-0.2-0.1-0.3-0.1-0.3-0.3"
			/>
		<path class="st5" d="M94.7,69.8c0.4,0,0.3-0.1,0.4-0.5c0.1-0.3,0.3-0.3,0.5-0.2c0.4,0.2,0.8,0.4,1.1,0.8"/>
		<path class="st5" d="M133.3,41.2c0,0.2,0.7-0.4,0.8-0.3"/>
		<path class="st5" d="M121.4,62c-0.1,0-0.3,0.1-0.2,0.1c0.2,0.6-0.3,0.9-0.4,1.4c0,0.3-0.3,0-0.4,0.3c0.1,0.1,0.3,0.4-0.2,0.4
			c-0.1,0-0.1,0.3,0.1,0.5c-0.5,0.1-0.3,0.6-0.5,0.9c-0.1,0,0.2,0.2,0.1,0.1"/>
		<path class="st5" d="M101.5,8.1c-0.2,0.4-0.7,0.7-1.2,1c0,0-0.1,0.1-0.1,0.1c-0.1,0.4-0.2,0.7-0.2,1.1c0,0.1,0.2,0.2,0.2,0.3"/>
		<path class="st5" d="M96.7,49c-0.1,0.7-0.1,0.7-0.7,1c0,0.1,0.1,0.2,0.2,0.3c-0.3,0.2-0.5,0.5-0.7,0.8"/>
		<path class="st5" d="M158.8,17.5c-0.2,0.1-0.1,0.1-0.2,0.3c-0.1,0.1-0.3,0.1-0.4,0.1c-0.5-0.2-0.7,0.2-1,0.4
			c-0.1,0-0.3-0.1-0.5-0.2c-0.3,0.3-0.6,0.5-1,0.2c-0.1-0.1-0.3-0.1-0.4,0.1"/>
		<path class="st5" d="M7.1,6.8C6.9,7.1,7.2,7.4,7.2,7.7C7.3,8.4,7,9.1,6.7,8.8c0,0,0-0.3-0.1-0.4"/>
		<path class="st5" d="M119.7,65.8c0.2,0.2-0.1,0.3-0.1,0.4c-0.3-0.1-0.4,0.2-0.5,0.4c0.3,0.4,0.3,0.8,0.1,1.2"/>
		<path class="st5" d="M2.9,9.8c-0.3,0.3-0.3,0.6,0.2,0.8c0.1,0,0.3,0.1,0.5,0.1"/>
		<path class="st5" d="M123.6,60.4c-0.1,0.2-0.1,0.3,0,0.4c-0.3,0.4-0.9,0.3-1.2,0.7c0,0-0.2,0.1-0.3,0c-0.5-0.2-0.6-0.1-0.8,0.4"/>
		<path class="st5" d="M98.2,45.3c0.4,0.3-0.1,0.6,0.1,0.9c-0.3,0.1-0.2,0.3-0.2,0.5c0,0.1-0.1,0.1-0.1,0.2"/>
		<path class="st5" d="M104,68.6c-0.1,0.1-0.2-0.1-0.3,0.1c-0.1,0.3-0.2,0.7-0.7,0.6"/>
		<path class="st5" d="M6.4,7.4C6.4,7.4,6.4,7.5,6.4,7.4c0.3,0.4,0.3,0.4,0.3,1"/>
		<path class="st5" d="M141.1,21.5"/>
		<path class="st5" d="M139.3,32.7"/>
		<path class="st5" d="M139.6,32.4"/>
		<path class="st5" d="M116.9,81.2"/>
		<path class="st5" d="M106,13.3c0,0.5,0,0.6-0.5,0.7"/>
		<path class="st5" d="M106.6,69.3c0.3,0.2,0.6,0.5,1,0.1c0.1-0.1,0.1,0.1,0.2,0.1"/>
		<path class="st5" d="M118.1,82.9"/>
		<path class="st5" d="M134,48.1c0.2,0.1,0,0.2-0.1,0.4c-0.2,0.1-0.2-0.2-0.4-0.1c-0.4,0.2-0.5,0.2-0.4,0.2"/>
		<path class="st5" d="M92.8,73.2c-0.1,0.1-0.4-0.1-0.5-0.3c0.5-0.2-0.2-0.4,0.1-0.8"/>
		<path class="st5" d="M99.9,9.2c0.3,0.4,0.3,0.4,0.7,0.1"/>
		<path class="st5" d="M132.9,50.9c-0.2,0.1-0.5,0.1-0.7,0.3"/>
		<path class="st5" d="M133,44.4"/>
		<path class="st5" d="M132.1,44.8"/>
		<path class="st5" d="M6.4,7.4c0.1,0.1,0,0,0-0.2c0-0.1,0-0.2-0.1-0.4"/>
	</g>
</g>
</svg>
