<svg xmlns="http://www.w3.org/2000/svg" viewBox="0 0 368.1 72"><defs><style>.cls-1{fill:#fff;}</style></defs><g id="IU_Tab" data-name="IU Tab"><path class="cls-1" d="M36.09,108v72H97.48V108Zm50.75,21.18h-3v24.65L79,158.75H70.77v5.68h3v4.92H59.8v-4.92h3v-5.68H54.42l-4.83-4.92V129.18h-3v-3.82H59.75v3.82H57.11v21.28h5.65v-28h-3v-3.82H73.74v3.82h-3v28h5.59V129.18H73.71v-3.82H86.84Z" transform="translate(-36.09 -108)"/></g><g id="measure_guides" data-name="measure guides"><path class="cls-1" d="M113.83,129h4.94v24.07h-4.94Z" transform="translate(-36.09 -108)"/><path class="cls-1" d="M122.5,129h5.1l5.53,10.8c.78,1.53,1.17,2.31,2,4.13h.07V129h4.49v24.07h-4.59l-6.24-11.68c-.68-1.3-1-2-1.76-3.57H127v15.25H122.5Z" transform="translate(-36.09 -108)"/><path class="cls-1" d="M143.39,129h6.31c6.47,0,11,2.67,11,12s-4.65,12.1-11,12.1h-6.31ZM150.15,149c4.17,0,5.63-2.15,5.63-8,0-5.63-1.46-7.8-5.66-7.8h-1.79V149Z" transform="translate(-36.09 -108)"/><path class="cls-1" d="M163.62,129h4.94v24.07h-4.94Z" transform="translate(-36.09 -108)"/><path class="cls-1" d="M175.24,153.09h-4.62l7.06-24.16h4.75l7,24.16h-5l-1.3-5.08h-6.64Zm6.34-11.35c-.65-2.54-1.17-4.33-1.62-6.57h-.07c-.42,2.28-1,4-1.66,6.54l-.65,2.47h4.62Z" transform="translate(-36.09 -108)"/><path class="cls-1" d="M191.51,129h5.11l5.53,10.8c.78,1.53,1.17,2.31,1.95,4.13h.06V129h4.49v24.07h-4.58l-6.25-11.68c-.68-1.3-1-2-1.75-3.57H196v15.25h-4.49Z" transform="translate(-36.09 -108)"/><path class="cls-1" d="M215.35,153.09h-4.62l7.06-24.16h4.74l7.06,24.16h-5L223.31,148h-6.63Zm6.34-11.35c-.65-2.54-1.17-4.33-1.63-6.57H220c-.42,2.28-1,4-1.66,6.54l-.65,2.47h4.62Z" transform="translate(-36.09 -108)"/><path class="cls-1" d="M238.92,144.76V129h4.94v15.45c0,3.35.95,4.84,3.42,4.84s3.41-1.52,3.41-4.81V129h4.72v15.71c0,5.56-2.38,8.75-8.2,8.75S238.92,150.29,238.92,144.76Z" transform="translate(-36.09 -108)"/><path class="cls-1" d="M258.92,129H264l5.53,10.8c.78,1.53,1.17,2.31,1.95,4.13h.07V129h4.48v24.07h-4.58l-6.25-11.68c-.68-1.3-1-2-1.75-3.57h-.07v15.25h-4.48Z" transform="translate(-36.09 -108)"/><path class="cls-1" d="M279.9,129h4.94v24.07H279.9Z" transform="translate(-36.09 -108)"/><path class="cls-1" d="M286.9,129h5l2.83,11.38c.58,2.28,1,4,1.46,6.41h.06c.49-2.37.95-4.06,1.5-6.34L300.66,129h4.61l-6.79,24.16H293.7Z" transform="translate(-36.09 -108)"/><path class="cls-1" d="M307.31,129h13.78v4.17h-8.84v5.43h6.37v3.93h-6.37V149h9.3v4.07H307.31Z" transform="translate(-36.09 -108)"/><path class="cls-1" d="M323.89,129h7.51c5.07,0,8.16,2.15,8.16,7.55,0,3.28-1.63,5.46-4,6.4l4.59,10.12h-5.11L331,144.18h-2.28v8.91h-4.84Zm7.35,11.38c2.4,0,3.61-1,3.61-3.74s-1.21-3.51-3.61-3.51h-2.51v7.25Z" transform="translate(-36.09 -108)"/><path class="cls-1" d="M341.17,147.79l4-2c1,2.08,2.69,3.8,5,3.8,2.08,0,3.18-1.1,3.18-2.73,0-2-2-2.89-4.26-3.87-3.15-1.33-7-2.86-7-7.7,0-4,3.25-6.7,7.64-6.7,4.13,0,6.63,2.31,8.1,5.36L354,136c-1-2-2.34-3.38-4.36-3.38A2.41,2.41,0,0,0,347,135c0,1.92,1.82,2.83,4,3.8,3.22,1.4,7.32,2.93,7.32,7.81,0,3.64-2.8,6.86-8,6.86A9.28,9.28,0,0,1,341.17,147.79Z" transform="translate(-36.09 -108)"/><path class="cls-1" d="M361,129H366v24.07H361Z" transform="translate(-36.09 -108)"/><path class="cls-1" d="M373.81,133.19h-5.72V129h16.42v4.17h-5.76v19.9h-4.94Z" transform="translate(-36.09 -108)"/><path class="cls-1" d="M392.46,143.66,385.69,129h5L395,139.17h.07L399.38,129h4.81l-6.79,14.6v9.47h-4.94Z" transform="translate(-36.09 -108)"/></g></svg>